<?xml version="1.0" encoding="utf-8"?>
<!-- Generator: Adobe Illustrator 24.0.2, SVG Export Plug-In . SVG Version: 6.00 Build 0)  -->
<svg version="1.1" id="Lager_1" xmlns="http://www.w3.org/2000/svg" xmlns:xlink="http://www.w3.org/1999/xlink" x="0px" y="0px"
	 viewBox="0 0 398.57 148.26" style="enable-background:new 0 0 398.57 148.26;" xml:space="preserve">
<style type="text/css">
	.st0{fill:#9D9E98;}
	.st1{fill:#F69A00;}
</style>
<path class="st0" d="M73.27,0v11H18.55v31.21h51v11h-51v33.96h55.13v11H5.49V0H73.27L73.27,0z M100.24,0v87.16h51.97v11H87.18V0
	H100.24L100.24,0z M180.61,0l30.93,82.49L242.61,0h17.87v98.16h-12.37V16.5h-0.27l-30.66,81.66h-11.14L175.38,16.5h-0.27v81.66
	h-12.37V0H180.61L180.61,0z M292.35,0v98.16h-13.06V0H292.35L292.35,0z M366.83,57.6l-16.36-45.78h-0.28L333.56,57.6H366.83
	L366.83,57.6z M357.76,0l38.36,98.16h-14.43L370.96,68.6h-41.52l-11,29.56H305.1L343.32,0H357.76L357.76,0z"/>
<g>
	<path class="st1" d="M24.74,134.1c-0.41-1.26-0.64-1.43-2.38-1.43h-8.75c-1.45,0-1.8,0.17-2.2,1.37l-2.03,6
		c-0.87,2.57-1.27,4.11-1.27,4.74c0,0.68,0.29,1.03,1.68,1.14l1.91,0.17c0.41,0.28,0.41,1.2-0.11,1.43
		c-1.51-0.11-3.3-0.11-6.03-0.17c-1.91,0-4,0.11-5.56,0.17c-0.35-0.23-0.46-1.14-0.11-1.43l1.91-0.17c1.39-0.11,2.66-0.74,3.48-2.8
		c1.04-2.63,2.66-6.34,5.1-12.74l5.91-15.42c0.81-2.05,1.16-3.14,0.98-4.06c1.39-0.4,2.38-1.43,3.01-2.17
		c0.35,0,0.75,0.11,0.87,0.51c0.75,2.51,1.68,5.14,2.55,7.65l7.94,22.96c1.68,4.91,2.43,5.77,4.92,6.05l1.56,0.17
		c0.41,0.28,0.29,1.2,0,1.43c-2.38-0.11-4.4-0.17-7.01-0.17c-2.78,0-4.98,0.11-6.66,0.17c-0.46-0.23-0.52-1.14-0.12-1.43l1.68-0.17
		c1.22-0.11,2.03-0.46,2.03-1.03c0-0.63-0.29-1.65-0.75-3.03L24.74,134.1z M13.27,129.02c-0.46,1.31-0.41,1.37,1.22,1.37h7.13
		c1.68,0,1.79-0.23,1.27-1.77l-3.13-9.31c-0.46-1.37-0.99-2.91-1.33-3.6h-0.12c-0.17,0.29-0.75,1.66-1.39,3.37L13.27,129.02z"/>
	<path class="st1" d="M74.09,141.53c0,2.28,0.35,3.65,1.39,4.05c0.17,0.17,0.17,0.51-0.06,0.68c-0.7,0-1.74,0.23-2.84,0.51
		c-3.07,0.8-7.24,1.49-10.37,1.49c-6.89,0-13.21-1.89-17.67-6.34c-3.48-3.43-5.33-7.94-5.33-12.96c0-4.85,1.62-9.77,5.21-13.54
		c3.88-4,9.62-6.68,18.36-6.68c3.3,0,6.37,0.63,7.36,0.86c1.1,0.23,2.9,0.63,3.59,0.51c0,1.88,0.35,4.85,0.87,8.28
		c-0.17,0.46-1.22,0.51-1.56,0.17c-1.62-6.17-5.97-8.11-11.88-8.11c-11.24,0-16.16,7.88-16.16,16.45c0,10.96,5.74,19.59,17.38,19.59
		c3.59,0,5.73-0.74,6.37-1.71c0.29-0.4,0.58-1.43,0.58-3.26v-2.28c0-4.8-0.17-5.14-3.77-5.54l-2.55-0.28c-0.46-0.23-0.4-1.26,0-1.43
		c1.68,0.12,4.87,0.17,8.28,0.17c2.26,0,4.23-0.06,6.14-0.17c0.41,0.23,0.46,1.08,0.06,1.43l-0.93,0.11
		c-2.43,0.29-2.49,1.88-2.49,4.8V141.53z"/>
	<path class="st1" d="M87.23,118.28c0-5.43-0.17-6.4-2.55-6.68l-1.85-0.23c-0.4-0.29-0.4-1.2,0.06-1.43
		c3.24-0.29,7.24-0.46,12.92-0.46c3.59,0,7.01,0.29,9.67,1.71c2.78,1.43,4.81,4,4.81,7.99c0,5.43-4.34,8.4-7.24,9.54
		c-0.29,0.34,0,0.91,0.29,1.37c4.63,7.37,7.7,11.93,11.64,15.19c0.99,0.86,2.43,1.48,4,1.6c0.29,0.11,0.35,0.57,0.06,0.8
		c-0.52,0.17-1.45,0.29-2.55,0.29c-4.92,0-7.88-1.43-11.99-7.2c-1.51-2.11-3.88-6.05-5.68-8.62c-0.87-1.26-1.8-1.83-4.11-1.83
		c-2.61,0-2.72,0.06-2.72,1.26v7.2c0,6,0.11,6.68,3.48,7.14l1.22,0.17c0.35,0.28,0.23,1.26-0.12,1.43
		c-2.61-0.11-4.58-0.17-6.89-0.17c-2.43,0-4.52,0.06-7.24,0.17c-0.35-0.17-0.46-1.03-0.12-1.43l1.45-0.17
		c3.36-0.4,3.48-1.14,3.48-7.14V118.28z M91.98,126.45c0,1.03,0,1.66,0.17,1.88c0.17,0.17,1.04,0.28,4,0.28
		c2.08,0,4.29-0.23,5.97-1.48c1.56-1.2,2.9-3.2,2.9-7.08c0-4.51-2.84-8.79-9.27-8.79c-3.59,0-3.76,0.23-3.76,1.83V126.45z"/>
	<path class="st1" d="M124.59,118.34c0-6.05-0.12-7.03-3.53-7.31l-1.45-0.11c-0.35-0.23-0.23-1.25,0.12-1.43
		c2.9,0.11,4.87,0.17,7.3,0.17c2.32,0,4.29-0.06,7.18-0.17c0.35,0.17,0.46,1.2,0.12,1.43l-1.45,0.11c-3.42,0.29-3.53,1.26-3.53,7.31
		v20.33c0,6.05,0.12,6.85,3.53,7.25l1.45,0.17c0.35,0.23,0.23,1.26-0.12,1.43c-2.9-0.11-4.87-0.17-7.18-0.17
		c-2.43,0-4.4,0.06-7.3,0.17c-0.35-0.17-0.46-1.08-0.12-1.43l1.45-0.17c3.42-0.4,3.53-1.2,3.53-7.25V118.34z"/>
	<path class="st1" d="M146.6,113.6c4.23-3.25,9.62-4.85,15.64-4.85c3.13,0,7.53,0.63,10.25,1.37c0.7,0.17,1.1,0.28,1.62,0.23
		c0.06,1.31,0.35,4.91,0.81,8.39c-0.29,0.4-1.16,0.46-1.56,0.12c-0.87-3.88-3.48-8.34-11.88-8.34c-8.86,0-16.39,5.54-16.39,17.36
		c0,11.99,7.7,18.62,17.21,18.62c7.47,0,10.77-4.8,12.11-8.16c0.41-0.29,1.27-0.17,1.51,0.23c-0.41,2.97-1.91,6.74-2.78,7.82
		c-0.7,0.11-1.39,0.34-2.03,0.57c-1.28,0.45-5.44,1.31-9.15,1.31c-5.21,0-10.2-1.03-14.42-3.83c-4.64-3.14-8.23-8.34-8.23-15.7
		C139.31,122.39,142.2,116.97,146.6,113.6z"/>
	<path class="st1" d="M212.12,123.99c0-3.54-0.12-10.11-1.1-11.82c-0.4-0.69-1.45-1.09-2.9-1.2l-1.45-0.11
		c-0.35-0.4-0.23-1.14,0.12-1.37c2.2,0.11,4.34,0.17,6.6,0.17c2.44,0,4-0.06,6.08-0.17c0.46,0.29,0.41,1.03,0.12,1.37l-1.39,0.11
		c-1.45,0.11-2.55,0.63-2.9,1.37c-0.81,1.89-0.81,8.45-0.81,11.65v6.45c0,4.97-0.81,10.22-4.05,13.65
		c-2.49,2.68-6.78,4.17-11.06,4.17c-4,0-8-0.75-10.83-3.14c-3.07-2.51-4.52-6.68-4.52-13.48v-13.48c0-5.94-0.12-6.91-3.47-7.2
		l-1.45-0.11c-0.35-0.23-0.23-1.2,0.11-1.37c2.9,0.11,4.87,0.17,7.18,0.17c2.38,0,4.29-0.06,7.13-0.17
		c0.35,0.17,0.46,1.14,0.12,1.37l-1.39,0.11c-3.36,0.29-3.48,1.26-3.48,7.2v12.33c0,9.19,2.9,15.25,11.76,15.25
		c8.4,0,11.59-6.51,11.59-15.19V123.99z"/>
	<path class="st1" d="M227.7,118.23c0-6-0.12-6.91-3.77-7.2l-1.45-0.11c-0.34-0.23-0.23-1.25,0.12-1.43
		c3.24,0.11,5.21,0.17,7.53,0.17c2.26,0,4.23-0.06,7.13-0.17c0.35,0.17,0.46,1.2,0.12,1.43l-1.39,0.11c-3.42,0.29-3.54,1.2-3.54,7.2
		v19.87c0,3.6,0.18,5.08,1.22,6.17c0.64,0.63,1.74,1.31,6.31,1.31c4.92,0,6.14-0.23,7.07-0.74c1.16-0.68,2.66-2.74,3.82-5.65
		c0.35-0.29,1.45-0.06,1.45,0.34c0,0.63-1.62,6.45-2.43,7.99c-2.95-0.11-8.46-0.17-14.42-0.17h-5.33c-2.43,0-4.29,0.06-7.53,0.17
		c-0.35-0.17-0.46-1.08-0.12-1.43l1.74-0.17c3.36-0.34,3.48-1.14,3.48-7.14V118.23z"/>
	<path class="st1" d="M267.84,138.79c0,6,0.12,6.85,3.48,7.14l1.85,0.17c0.35,0.23,0.23,1.26-0.12,1.43
		c-3.3-0.11-5.27-0.17-7.59-0.17s-4.34,0.06-8.05,0.17c-0.35-0.17-0.46-1.14,0-1.43l2.08-0.17c3.3-0.29,3.59-1.14,3.59-7.14v-25.53
		c0-1.77,0-1.83-1.74-1.83h-3.19c-2.49,0-5.68,0.11-7.12,1.43c-1.39,1.26-1.97,2.51-2.61,3.94c-0.46,0.34-1.27,0.06-1.51-0.4
		c0.93-2.57,1.8-6.22,2.2-8.51c0.17-0.11,0.93-0.17,1.1,0c0.35,1.83,2.26,1.77,4.92,1.77h23.46c3.13,0,3.65-0.11,4.52-1.6
		c0.29-0.11,0.93-0.06,1.04,0.17c-0.64,2.34-1.04,6.97-0.87,8.68c-0.23,0.46-1.22,0.46-1.51,0.12c-0.18-1.43-0.58-3.54-1.45-4.17
		c-1.33-0.97-3.53-1.43-6.72-1.43h-4.11c-1.74,0-1.68,0.06-1.68,1.94V138.79z"/>
	<path class="st1" d="M319.8,123.99c0-3.54-0.12-10.11-1.1-11.82c-0.4-0.69-1.45-1.09-2.9-1.2l-1.45-0.11
		c-0.35-0.4-0.23-1.14,0.12-1.37c2.2,0.11,4.34,0.17,6.6,0.17c2.43,0,4-0.06,6.08-0.17c0.47,0.29,0.41,1.03,0.12,1.37l-1.39,0.11
		c-1.45,0.11-2.55,0.63-2.9,1.37c-0.81,1.89-0.81,8.45-0.81,11.65v6.45c0,4.97-0.81,10.22-4.06,13.65
		c-2.49,2.68-6.78,4.17-11.06,4.17c-4,0-7.99-0.75-10.83-3.14c-3.07-2.51-4.52-6.68-4.52-13.48v-13.48c0-5.94-0.12-6.91-3.48-7.2
		l-1.45-0.11c-0.35-0.23-0.23-1.2,0.12-1.37c2.9,0.11,4.87,0.17,7.18,0.17c2.38,0,4.29-0.06,7.13-0.17
		c0.35,0.17,0.46,1.14,0.12,1.37l-1.39,0.11c-3.36,0.29-3.48,1.26-3.48,7.2v12.33c0,9.19,2.9,15.25,11.76,15.25
		c8.4,0,11.59-6.51,11.59-15.19V123.99z"/>
	<path class="st1" d="M335.38,118.28c0-5.43-0.18-6.4-2.55-6.68l-1.86-0.23c-0.41-0.29-0.41-1.2,0.06-1.43
		c3.24-0.29,7.24-0.46,12.92-0.46c3.59,0,7.01,0.29,9.67,1.71c2.78,1.43,4.81,4,4.81,7.99c0,5.43-4.34,8.4-7.24,9.54
		c-0.29,0.34,0,0.91,0.29,1.37c4.63,7.37,7.71,11.93,11.64,15.19c0.99,0.86,2.43,1.48,4,1.6c0.29,0.11,0.35,0.57,0.06,0.8
		c-0.52,0.17-1.45,0.29-2.55,0.29c-4.92,0-7.88-1.43-11.99-7.2c-1.51-2.11-3.88-6.05-5.68-8.62c-0.87-1.26-1.8-1.83-4.11-1.83
		c-2.61,0-2.72,0.06-2.72,1.26v7.2c0,6,0.12,6.68,3.48,7.14l1.22,0.17c0.34,0.28,0.23,1.26-0.12,1.43
		c-2.61-0.11-4.58-0.17-6.89-0.17c-2.43,0-4.52,0.06-7.24,0.17c-0.35-0.17-0.46-1.03-0.11-1.43l1.45-0.17
		c3.36-0.4,3.48-1.14,3.48-7.14V118.28z M340.13,126.45c0,1.03,0,1.66,0.17,1.88c0.17,0.17,1.04,0.28,4,0.28
		c2.09,0,4.29-0.23,5.97-1.48c1.56-1.2,2.9-3.2,2.9-7.08c0-4.51-2.84-8.79-9.27-8.79c-3.59,0-3.76,0.23-3.76,1.83V126.45z"/>
	<path class="st1" d="M372.74,118.23c0-5.94-0.12-6.79-3.53-7.2l-0.93-0.11c-0.35-0.23-0.23-1.25,0.12-1.43
		c2.49,0.11,4.46,0.17,6.84,0.17h10.89c3.71,0,7.13,0,7.82-0.17c0.35,0.97,0.69,5.08,0.93,7.6c-0.23,0.34-1.16,0.46-1.45,0.11
		c-0.87-2.68-1.39-4.68-4.4-5.42c-1.21-0.29-3.07-0.34-5.62-0.34h-4.17c-1.74,0-1.74,0.11-1.74,2.28v11.42c0,1.6,0.17,1.6,1.91,1.6
		h3.36c2.43,0,4.23-0.11,4.92-0.34c0.7-0.23,1.1-0.57,1.39-2l0.46-2.34c0.29-0.34,1.28-0.34,1.51,0.06c0,1.37-0.23,3.6-0.23,5.77
		c0,2.06,0.23,4.23,0.23,5.48c-0.23,0.4-1.22,0.4-1.51,0.06l-0.52-2.23c-0.23-1.03-0.64-1.89-1.79-2.17
		c-0.81-0.23-2.2-0.29-4.46-0.29h-3.36c-1.74,0-1.91,0.06-1.91,1.54v8.05c0,3.03,0.17,4.97,1.1,5.94c0.7,0.68,1.91,1.31,7.01,1.31
		c4.46,0,6.14-0.23,7.42-0.86c1.04-0.57,2.61-2.57,4.11-5.54c0.41-0.29,1.22-0.11,1.45,0.4c-0.41,2-1.85,6.4-2.61,7.94
		c-5.21-0.11-10.37-0.17-15.53-0.17h-5.21c-2.49,0-4.46,0.06-7.88,0.17c-0.35-0.17-0.46-1.08-0.12-1.43l1.91-0.17
		c3.3-0.29,3.59-1.14,3.59-7.14V118.23z"/>
</g>
</svg>
