<svg xmlns="http://www.w3.org/2000/svg" viewBox="0 0 188 35"><path d="M23.98 32.73h8.8l11.83-18.07.88-1.34.83 1.38 10.84 18.03h8.38l11.83-18.07.88-1.34.83 1.38 10.84 18.03H97.87l-1.8-2.98L80.79 4.34 65 29.71l-.87 1.4-.84-1.41L48.04 4.34 32.33 29.58l-1.87 2.99V4.68h-3.34l-9.14 13.73-.8 1.2-.85-1.17L6.32 4.66H2.59v28.07h1.86v-20.6l1.82 2.59 7.92 11.17 7.95-11.99 1.84-2.78v21.61M119.34 32.73h6.48V4.68h-3.34l-9.14 13.73-.81 1.2-.85-1.17-10-13.78h-3.74v28.07h1.86v-20.6l1.83 2.59 7.91 11.17 7.95-11.99 1.85-2.78v21.61M185.41 4.52a25.512 25.512 0 0 0-3.67-.35c-6 0-8.89 4.24-8.89 13v2c0 1.16.05 2.59.05 4.28 0 5.13-.9 7.74-5.82 7.74h-.55v1.59h4.61c3.31 0 5.12-.93 7.2-3.69 1.51-2 1.62-4.69 1.62-8.9v-4.14c0-5.48.41-9.45 5.47-9.9zM168.74 4.52a25.512 25.512 0 0 0-3.67-.35c-6 0-8.89 4.24-8.89 13v2c0 1.16.05 2.59.05 4.28 0 5.13-.9 7.74-5.82 7.74h-1l-10 .24h-1V5.91h1l8.75.12V4.69h-16.54v28h22.89c3.3 0 5.11-.93 7.19-3.69 1.51-2 1.62-4.69 1.62-8.9v-4.14c0-5.48.41-9.45 5.47-9.9z"/><path d="M146.97 21.83l-.02-8.4-5.82 4.2 5.84 4.2M44.98 26.93l-4.2 5.8h8.38l-4.18-5.8M77.74 26.93l-4.2 5.8h8.39l-4.19-5.8"/><path d="M80.81 2.41l16.13 26.82V3.65h5.25l10.31 14.2 9.44-14.17h4.89v30.06h-8.51V14.46l-8.76 13.21-8.75-12.37v18.44H89.32L78.21 15.22 66.08 33.74h-9.49L45.45 15.22 33.32 33.74H22.98V14.46l-8.77 13.21L5.45 15.3v18.44H1.58V3.65h5.25l10.31 14.2 9.44-14.17h4.89v25.37L48.05 2.41l16.1 26.77L80.81 2.41m0-2.41l-1.07 1.75-15.57 25-15-25L48.07 0l-1.09 1.75-14.25 22.89V2.42h-6.82l-.37.58-8.44 12.65L7.85 2.91l-.38-.51H.32V35h6.39V19.25l6.48 9.14 1.06 1.5 1-1.53 6.46-9.72V35H34l.38-.57 11-16.85 10.1 16.81.37.61h10.91l.38-.57 11-16.85 10.18 16.81.37.61h13.43V19.25l6.47 9.14 1.06 1.5 1-1.53 6.45-9.72V35h11V2.42h-6.78l-.38.56-8.44 12.67-9.29-12.74-.38-.51h-7.15v22.29L81.89 1.76 80.83 0zM181.74 3.16a31.69 31.69 0 0 1 4.68.5v3.41c-4.67 0-5.46 2.46-5.46 8.93v4.14c0 4.09 0 7.17-1.82 9.51-2.15 2.86-4.17 4.09-8 4.09h-5.61v-3.61h1.55c3.91 0 4.82-1.54 4.82-6.73 0-2.82-.09-4.93-.09-6.25 0-8.94 3.12-14 9.9-14m0-1.26c-5.09 0-11.16 2.65-11.16 15.25v2c0 1.14.06 2.57.06 4.23 0 5.21-.92 5.47-3.56 5.47h-2.73V35h6.87c4.05 0 6.49-1.25 9-4.6 2.07-2.74 2.07-6.39 2.07-10.26v-4.16c0-6.72.89-7.67 4.2-7.67h.49l.36-.34c.42-.39.42-.39.42-4.33v-1l-1-.19a32.25 32.25 0 0 0-4.91-.53z"/><path d="M165.07 3.16a31.69 31.69 0 0 1 4.68.5v3.41c-4.68 0-5.43 2.46-5.43 8.93v4.14c0 4.09-.05 7.17-1.81 9.51-2.16 2.86-4.17 4.09-8 4.09h-23.9V3.68h18.58v3.39l-9.77-.13v10.68l8.54-6.15V23.8l-8.56-6.17v12.76l10-.24h1c3.92 0 4.82-1.54 4.82-6.73 0-2.82-.09-4.93-.09-6.25 0-8.94 3.13-14 9.9-14m0-1.26c-5.09 0-11.16 2.65-11.16 15.25v2c0 1.14.06 2.57.06 4.23 0 5.21-.92 5.47-3.56 5.47h-1.06l-8.7.22v-9l6.56 4.73 2 1.44V9l-2 1.44-6.54 4.71V8.21l8.49.12h1.28V2.42h-21.08V35h25.16c4 0 6.48-1.25 9-4.6 2.07-2.74 2.07-6.39 2.07-10.26v-4.16c0-6.72.89-7.67 4.2-7.67h.49l.37-.34c.41-.39.41-.39.41-4.33v-1l-1-.19a32.125 32.125 0 0 0-4.91-.53zM44.98 25.21l6.15 8.53H38.8l6.18-8.53m0-2.15l-1 1.41-6.2 8.53-1.46 2h17.27l-1.44-2L46 24.47l-1-1.41zM77.74 25.21l6.15 8.53H71.56l6.18-8.53m0-2.15l-1 1.41-6.2 8.53-1.44 2h17.22l-1.44-2-6.15-8.53-1-1.41z"/></svg>