<svg width="295" height="67" viewBox="0 0 295 67" fill="none" xmlns="http://www.w3.org/2000/svg">
<path d="M290.935 23.827C290.216 25.1408 288.761 25.8219 287.263 25.8219H283.297C283.237 25.8219 283.182 25.7912 283.15 25.7408C283.122 25.6959 283.116 25.6408 283.134 25.5909C283.491 24.579 283.766 23.5333 283.988 22.4687C284.4 20.4831 286.072 18.9641 288.1 18.9641C290.439 18.9641 292.302 21.0089 291.296 23.1206C291.183 23.3587 291.062 23.5942 290.935 23.827ZM283.441 31.2433C282.044 31.926 280.887 30.2631 281.675 28.9223C281.98 28.4019 282.514 28.1036 283.117 28.1036H283.294C285.003 28.1036 285.729 30.0074 284.233 30.8323C283.973 30.9756 283.708 31.1125 283.441 31.2433ZM281.853 7.77097C281.121 6.01793 282.724 3.93147 284.354 4.90745C284.819 5.18574 285.27 5.48346 285.705 5.80153C286.892 6.67092 286.173 8.31605 284.701 8.31605H282.789C282.477 8.31605 281.973 8.05935 281.853 7.77097ZM291.431 12.8108C292.22 14.9058 290.368 16.9105 288.13 16.9105H287.307C285.766 16.9105 284.502 15.6484 284.178 14.1417C283.767 12.2306 285.114 10.3696 287.069 10.3696H288.235C289.419 10.3696 290.573 10.9152 291.081 11.9849C291.21 12.2565 291.326 12.5319 291.431 12.8108ZM269.425 44.9548C269.323 44.9674 269.204 44.9912 269.101 44.996C267.379 45.0769 265.698 44.9915 264.069 44.7751C262.687 44.5914 262.13 42.9207 263.136 41.9547C263.669 41.4419 264.495 41.3524 265.132 41.7285C266.569 42.5763 267.979 43.5119 269.421 44.3833C269.799 44.6114 269.863 44.901 269.425 44.9548ZM259.687 49.8465C257.908 50.149 256.948 48.038 258.314 46.8596C258.331 46.8453 258.347 46.8311 258.364 46.8169C258.802 46.4417 259.394 46.3168 259.957 46.4434C261.842 46.8675 262.181 49.3619 260.285 49.7365C260.087 49.7757 259.888 49.8123 259.687 49.8465ZM248.516 49.1947C246.341 48.4972 245.908 45.7707 247.524 44.1571C248.508 43.1756 249.985 42.9144 251.23 43.5314C251.636 43.7327 252.037 43.928 252.424 44.101C254.178 44.8639 254.706 47.1683 253.353 48.5207L252.939 48.9349C252.258 49.6157 251.285 49.9342 250.349 49.709C249.729 49.5601 249.118 49.3877 248.516 49.1947ZM238.766 42.7959C237.725 41.3289 238.025 39.3475 239.287 38.0659C239.907 37.4367 240.567 36.8253 241.266 36.2475C241.337 36.189 241.435 36.1742 241.52 36.2083C241.554 36.222 241.585 36.2429 241.61 36.2698C242.366 37.0717 243.163 37.8733 244.012 38.6507C245.604 40.1096 245.908 42.5786 244.352 44.076C243.098 45.2826 241.089 45.4708 239.905 44.1955C239.487 43.7448 239.108 43.2772 238.766 42.7959ZM235.96 33.0134C236.192 31.4133 238.161 31.343 238.984 32.7347C239.454 33.5293 239.372 34.57 238.718 35.2224L238.647 35.2942C237.564 36.3749 235.797 35.8926 235.842 34.3639C235.855 33.9136 235.895 33.4619 235.96 33.0134ZM242.981 27.7129C243.996 28.3637 244.212 29.7476 243.362 30.6029C242.551 31.4179 241.17 31.3029 240.64 30.2835C240.49 29.9953 240.35 29.7032 240.22 29.407C239.514 27.7948 241.295 26.6326 242.777 27.5824L242.981 27.7129ZM247.426 30.5501L249.412 31.7787C251.647 33.1611 252.084 36.1955 250.2 38.0278C249.817 38.4004 249.432 38.7716 249.046 39.1429C248.994 39.1928 248.925 39.2206 248.853 39.2206C248.802 39.2206 248.751 39.2066 248.708 39.1798C246.668 37.9214 245.023 36.1981 243.582 34.5077C243.416 34.3131 243.407 34.0303 243.557 33.8235C243.577 33.7962 243.599 33.7709 243.623 33.7476L246.906 30.6212C247.046 30.4879 247.256 30.4593 247.426 30.5501ZM258.917 37.7147C260.539 38.7484 260.847 40.9679 259.482 42.3228C258.703 43.0968 257.548 43.4183 256.501 43.0862C255.958 42.9137 255.42 42.7252 254.89 42.5194C252.824 41.7174 252.381 39.1289 253.954 37.5675C255.018 36.511 256.679 36.3243 257.956 37.1114C258.278 37.3099 258.598 37.5112 258.917 37.7147ZM291.007 7.82168C286.299 2.54062 279.375 -0.209912 271.404 0.0125029C271.39 0.012905 271.376 0.0179997 271.365 0.0269984C271.328 0.0565817 271.333 0.114373 271.374 0.137381C274.06 1.62922 276.299 3.72753 277.764 5.9922C278.54 7.19167 277.572 8.6076 276.143 8.6076H275.112C274.541 8.6076 274.079 9.07014 274.079 9.64072C274.079 10.2063 274.534 10.6668 275.099 10.6738L277.811 10.7073C279.288 10.7255 280.652 11.5956 281.038 13.0211C281.069 13.1357 281.099 13.2507 281.128 13.3662C281.64 15.4194 279.913 17.2021 277.797 17.2021H275.106C274.539 17.2021 274.079 17.6618 274.079 18.2288C274.079 18.7959 274.539 19.2556 275.106 19.2556H277.65C279.792 19.2556 281.515 21.1433 281.013 23.2257C280.958 23.4575 280.898 23.688 280.834 23.9168C280.451 25.2873 279.13 26.1134 277.707 26.1134H275.19C274.576 26.1134 274.079 26.6109 274.079 27.2245C274.079 27.8317 274.566 28.3264 275.173 28.3354L276.045 28.3485C277.503 28.3702 278.381 29.8768 277.42 30.974C276.067 32.5197 274.282 33.9206 272.403 34.9922C271.453 35.5343 270.801 36.5079 270.786 37.6018C270.755 39.8178 268.307 41.1426 266.435 39.9564L245.647 26.7843C241.919 24.4221 236.725 24.6626 234.919 28.6894C233.406 32.0621 233.162 35.8241 234.274 39.5249C235.813 44.963 242.064 50.2489 248.695 51.7447C254.174 53.1891 259.991 52.7584 264.963 50.8364C267.578 49.8258 270.846 51.437 270.829 54.2402C270.826 54.8281 270.821 55.4144 270.817 55.9987C270.811 56.9537 271.585 57.7279 272.54 57.7279C273.495 57.7279 274.269 56.9537 274.269 55.9986V41.9428C274.269 38.5384 276.884 35.944 280.139 34.9488C287.167 33.2121 293.513 27.5332 294.655 21.6261C295.718 16.657 294.275 11.764 291.007 7.82168Z" fill="white"/>
<path d="M270.702 1.88016C270.701 1.30419 270.371 0.779395 269.853 0.528635L269.667 0.438533C269.554 0.384092 269.429 0.359837 269.304 0.368145L268.852 0.415055C268.625 0.438575 268.455 0.634402 268.464 0.862517V5.31187C268.464 5.6161 268.21 5.8823 267.861 5.95835C267.496 6.03441 267.115 5.90765 266.941 5.65412L264.194 1.83888C264.025 1.60483 263.724 1.50721 263.45 1.59774C262.546 1.90197 261.705 2.23155 260.88 2.61183C260.055 2.99212 259.278 3.41043 258.501 3.87945C258.287 4.00925 258.229 4.29375 258.376 4.49648L261.134 8.31613C261.325 8.58233 261.277 8.91191 261.007 9.11473C260.738 9.33022 260.341 9.36825 260.008 9.21614L255.138 6.96577C254.9 6.85608 254.619 6.90974 254.439 7.09921C253.836 7.72035 253.329 8.34148 252.853 9.00064C252.377 9.64713 251.964 10.3316 251.584 11.0542C251.48 11.2544 251.564 11.5006 251.769 11.5947L256.66 13.843C256.993 13.9951 257.152 14.2993 257.057 14.5909C256.962 14.8824 256.629 15.0852 256.264 15.0725H250.585C250.356 15.0725 250.161 15.239 250.124 15.4655C249.997 16.2388 249.934 16.9993 249.934 17.7472C249.934 18.5078 249.997 19.2557 250.124 20.0289C250.161 20.2554 250.356 20.4219 250.585 20.4219H256.264C256.644 20.4219 256.978 20.612 257.073 20.9036C257.168 21.1952 257.009 21.4994 256.692 21.6388L251.801 23.8871C251.596 23.9812 251.512 24.2274 251.615 24.4276C251.996 25.1501 252.408 25.822 252.884 26.4811C253.36 27.1403 253.884 27.7614 254.471 28.3826C254.651 28.5721 254.932 28.6261 255.17 28.5168L260.039 26.2783C260.357 26.1262 260.769 26.1642 261.039 26.3797C261.182 26.4938 261.261 26.6332 261.277 26.7854C261.293 26.9248 261.261 27.0516 261.166 27.1783L258.407 30.998C258.261 31.2007 258.319 31.4852 258.532 31.615C259.31 32.0967 260.087 32.515 260.912 32.8953C261.737 33.2756 262.578 33.6052 263.482 33.9094C263.756 33.9999 264.057 33.9023 264.225 33.6682L266.068 31.108L266.972 29.853C267.163 29.5868 267.543 29.46 267.908 29.5488C268.273 29.6248 268.511 29.891 268.511 30.1953V34.6446C268.511 34.8742 268.687 35.0658 268.915 35.0861L269.368 35.1263C269.493 35.1346 269.618 35.1104 269.73 35.0559L269.915 34.9663C270.434 34.7154 270.763 34.1894 270.762 33.6131L270.702 1.88016Z" fill="white"/>
<path d="M21.1953 46.4991H10.7087C5.75891 46.4991 4.28348 47.5766 4.28348 51.0119C4.28348 54.0668 5.17191 55.4739 10.201 55.4739C12.9915 55.4739 16.2064 54.843 19.0361 53.7554C20.4016 53.2305 21.2112 51.867 21.2112 50.4041V46.515C21.2112 46.5062 21.2041 46.4991 21.1953 46.4991ZM25.4788 57.7303H22.5964C22.1296 57.7303 21.7342 57.3863 21.6695 56.924C21.5831 56.3064 20.9284 55.9446 20.3494 56.1763C17.1509 57.4564 13.5282 58.2627 9.31261 58.2627C2.95084 58.2627 0 55.626 0 50.9612C0 45.4343 3.47438 43.7104 10.5659 43.7104H16.1027C18.924 43.7104 21.2112 41.4232 21.2112 38.6019C21.2112 35.0018 18.6252 33.8229 12.7235 33.8229C9.60898 33.8229 6.33601 34.115 3.34251 34.5115C2.63253 34.6055 1.96081 34.1573 1.78533 33.4629C1.59042 32.6917 2.07754 31.9131 2.86279 31.7857C5.67204 31.33 9.38763 31.0215 12.5014 31.0215C21.814 31.0215 25.4947 33.7088 25.4947 38.5892V57.7144C25.4947 57.7232 25.4876 57.7303 25.4788 57.7303Z" fill="white"/>
<path d="M78.8055 32.7373C78.9383 33.5188 78.4722 34.2755 77.7243 34.5383C75.9514 35.1612 74.1285 35.929 72.354 36.7295C69.4673 38.0317 67.6624 40.9474 67.6624 44.1143V55.5885C67.6624 56.7714 66.7035 57.7303 65.5206 57.7303C64.3378 57.7303 63.3789 56.7714 63.3789 55.5885V33.5399C63.3789 32.45 64.2624 31.5666 65.3522 31.5666H65.6746C66.5407 31.5666 67.256 32.243 67.3044 33.1077C67.3693 34.2659 68.587 34.9874 69.639 34.4986C72.1181 33.3467 74.5614 32.2814 76.848 31.5238C77.7341 31.2302 78.6491 31.817 78.8055 32.7373Z" fill="white"/>
<path d="M101.853 40.437C101.853 36.0384 98.9025 33.8327 92.1758 33.8327C85.4492 33.8327 82.4983 36.0384 82.4983 40.437V48.8667C82.4983 53.2653 85.4492 55.471 92.1758 55.471C98.9025 55.471 101.853 53.2653 101.853 48.8667V40.437ZM92.1758 58.2597C82.0541 58.2597 78.2148 54.1273 78.2148 48.7526V40.5384C78.2148 35.1637 82.0541 31.0312 92.1758 31.0312C102.298 31.0312 106.137 35.1637 106.137 40.5384V48.7526C106.137 54.1273 102.298 58.2597 92.1758 58.2597Z" fill="white"/>
<path d="M157.106 57.7273C155.923 57.7273 154.964 56.7685 154.964 55.5856V36.5581C154.964 34.6313 153.568 33.9341 151.046 33.9341C149.179 33.9341 146.55 34.3212 143.812 34.9562C139.775 35.8926 137.228 39.6751 137.228 43.8191V55.5856C137.228 56.7685 136.269 57.7273 135.086 57.7273C133.903 57.7273 132.944 56.7685 132.944 55.5856V36.5581C132.944 34.6313 131.532 33.9341 129.026 33.9341C127.376 33.9341 124.661 34.3341 121.8 34.9879C117.761 35.9113 115.207 39.6751 115.207 43.8191V55.5856C115.207 56.7685 114.248 57.7273 113.066 57.7273C111.883 57.7273 110.924 56.7685 110.924 55.5856V33.5711C110.924 32.4624 111.823 31.5637 112.931 31.5637H113.705C114.274 31.5637 114.753 31.9863 114.825 32.5501C114.916 33.2627 115.639 33.7114 116.324 33.4953C120.199 32.2731 125.735 31.0312 129.628 31.0312C134.197 31.0312 139.754 32.8168 144.233 31.9187C146.871 31.3897 149.522 31.0312 151.649 31.0312C157.265 31.0312 159.248 33.3383 159.248 36.9384V55.5856C159.248 56.7685 158.289 57.7273 157.106 57.7273Z" fill="white"/>
<path d="M167.963 40.436C167.963 41.7382 169.019 42.7938 170.321 42.7938H183.628C184.93 42.7938 185.985 41.7382 185.985 40.436C185.985 36.0374 183.844 33.7303 177.117 33.7303C170.39 33.7303 167.963 36.0374 167.963 40.436ZM177.355 55.5207C180.639 55.5207 184.261 55.1005 187.52 54.5179C188.207 54.3951 188.881 54.8026 189.079 55.4718C189.296 56.2053 188.862 56.9739 188.114 57.1348C184.928 57.8201 180.867 58.2715 177.069 58.2715C166.948 58.2715 163.695 54.4559 163.695 48.7643V40.5501C163.695 35.1754 167.027 31.043 177.133 31.043C187.254 31.043 190.205 35.1754 190.205 40.5501C190.205 43.3365 187.947 45.5953 185.16 45.5953H171.249C169.443 45.5953 167.979 47.0595 167.979 48.8657C167.963 53.5306 170.184 55.5207 177.355 55.5207Z" fill="white"/>
<path d="M216.083 31.5663C217.71 31.5663 218.48 33.5734 217.271 34.6622L210.686 40.5878C208.392 42.6519 208.403 46.2519 210.709 48.302L217.747 54.5589C218.994 55.6675 218.21 57.7299 216.541 57.7299C216.09 57.7299 215.655 57.5621 215.322 57.2592L209.368 51.8573C204.997 47.8911 204.994 41.0215 209.362 37.0515L214.888 32.028C215.215 31.7309 215.641 31.5663 216.083 31.5663ZM194.994 57.7299V22.8173C194.994 21.7174 195.827 20.7964 196.921 20.6863C198.183 20.5594 199.278 21.5496 199.278 22.8173V55.5755C199.278 56.7584 198.319 57.7173 197.136 57.7173H195.007C195 57.7173 194.994 57.7229 194.994 57.7299Z" fill="white"/>
<path d="M43.7223 33.7069C36.5514 33.7069 34.0448 35.3168 34.0448 40.0957V40.6281C34.0448 45.5718 37.1542 47.0169 43.7223 47.0169C50.2903 47.0169 53.3998 45.3563 53.3998 40.6281V40.0957C53.3998 35.3675 50.8931 33.7069 43.7223 33.7069ZM43.7223 49.7043C43.2708 49.7043 42.8403 49.6982 42.4259 49.6858C40.1455 49.6176 37.3198 49.668 36.3491 51.7326C36.1841 52.0836 36.1072 52.4435 36.1072 52.8226C36.1072 53.8494 36.9163 54.5339 39.3595 54.6987C43.865 54.9649 44.8963 55.0156 49.7033 55.2945C56.2713 55.6748 58.6351 56.8917 58.6351 60.5424C58.6351 65.9678 54.9386 66.8678 43.278 66.8678C40.3357 66.8678 35.6943 66.4885 32.0035 65.8362C31.2656 65.7058 30.8137 64.9663 31.0088 64.2428C31.1832 63.5956 31.8187 63.1865 32.4817 63.2847C35.8608 63.7853 40.0039 64.1805 43.4367 64.1805C53.1935 64.1805 54.4468 63.7115 54.4468 60.7072C54.4468 58.1339 52.9714 58.0832 48.6879 57.8677C44.103 57.6522 43.7381 57.6522 38.9311 57.386C33.6164 57.0691 31.8396 55.079 31.8396 52.7719C31.8396 50.4287 31.9669 46.7452 30.8618 44.6789C30.2282 43.4941 29.9199 42.1094 29.9199 40.5267V40.1971C29.9199 34.29 33.5371 31.0195 43.7381 31.0195C45.7415 31.0195 47.3929 31.1303 48.8584 31.3729C49.4862 31.4768 50.1193 31.5519 50.7556 31.5519H58.5366C59.1781 31.5519 59.6981 32.0719 59.6981 32.7134C59.6981 33.3283 59.2189 33.8366 58.6051 33.8729L58.4022 33.8849C57.1932 33.9563 56.5341 35.5907 56.9682 36.7213C57.3657 37.7566 57.5563 38.9218 57.5563 40.1971V40.5267C57.5405 46.4338 53.1777 49.7043 43.7223 49.7043Z" fill="white"/>
</svg>
