<?xml version="1.0" encoding="UTF-8" standalone="no"?>
<svg width="200px" height="50px" viewBox="0 0 200 50" version="1.1" xmlns="http://www.w3.org/2000/svg" xmlns:xlink="http://www.w3.org/1999/xlink">
    <!-- Generator: Sketch 39.1 (31720) - http://www.bohemiancoding.com/sketch -->
    <title>logo_OMSG</title>
    <desc>Created with Sketch.</desc>
    <defs>
        <linearGradient x1="324.748888%" y1="83.003053%" x2="37.4492519%" y2="53.0137476%" id="linearGradient-1">
            <stop stop-color="#018FB5" offset="0%"></stop>
            <stop stop-color="#00A4B7" offset="100%"></stop>
        </linearGradient>
        <linearGradient x1="99.0369363%" y1="62.7505707%" x2="-0.797643327%" y2="40.631858%" id="linearGradient-2">
            <stop stop-color="#00C0F1" offset="0%"></stop>
            <stop stop-color="#02A2E5" offset="100%"></stop>
        </linearGradient>
        <radialGradient cx="-8.85076806%" cy="85.9626062%" fx="-8.85076806%" fy="85.9626062%" r="114.666804%" id="radialGradient-3">
            <stop stop-color="#0086AD" offset="11.99%"></stop>
            <stop stop-color="#006539" offset="100%"></stop>
        </radialGradient>
        <linearGradient x1="81.4177074%" y1="20.8630109%" x2="3.67857392%" y2="94.8047349%" id="linearGradient-4">
            <stop stop-color="#F76A38" offset="0%"></stop>
            <stop stop-color="#FA6D71" offset="100%"></stop>
        </linearGradient>
        <linearGradient x1="16.414543%" y1="0.530748201%" x2="87.6109846%" y2="86.3746347%" id="linearGradient-5">
            <stop stop-color="#00C842" offset="0%"></stop>
            <stop stop-color="#007B4E" offset="100%"></stop>
        </linearGradient>
        <linearGradient x1="95.4228801%" y1="3.33509663%" x2="2.34139696%" y2="97.1353505%" id="linearGradient-6">
            <stop stop-color="#F7232B" offset="0%"></stop>
            <stop stop-color="#F9355E" offset="100%"></stop>
        </linearGradient>
        <linearGradient x1="99.0766303%" y1="42.8909883%" x2="0.810796323%" y2="81.3566325%" id="linearGradient-7">
            <stop stop-color="#006BB4" offset="0%"></stop>
            <stop stop-color="#0080C6" offset="100%"></stop>
        </linearGradient>
        <linearGradient x1="92.5529663%" y1="1.04009004%" x2="31.3043878%" y2="75.7100167%" id="linearGradient-8">
            <stop stop-color="#002A4A" offset="0%"></stop>
            <stop stop-color="#00437A" offset="100%"></stop>
        </linearGradient>
    </defs>
    <g id="Assets" stroke="none" stroke-width="1" fill="none" fill-rule="evenodd">
        <g id="logo_OMSG">
            <g transform="translate(1.000000, 1.000000)">
                <g id="Ebene_1">
                    <g id="Group">
                        <path d="M45.9857554,18.1259159 C45.938633,18.046441 45.8886975,17.9676693 45.830322,17.891711 C42.6611704,13.7540902 39.0334552,9.98641473 35.0273549,6.65901645 C32.8400354,4.84234561 30.5422949,3.15508532 28.1404634,1.6141152 C28.1067041,1.59231234 28.0722415,1.57965261 28.0377789,1.56066302 C27.0890027,0.984645441 25.9791666,0.6463494 24.7877457,0.6463494 C24.3959974,0.6463494 24.0169089,0.6927684 23.6455569,0.762396899 C23.0716493,0.870004579 22.5216545,1.04724076 22.0131555,1.29832535 C21.2226258,1.68233707 20.6269154,2.00375347 19.991819,2.35822583 C12.0281474,6.79827345 5.49994811,13.4959724 1.2772258,21.5946812 C1.26737935,21.6136707 1.2617528,21.6333637 1.25190635,21.6523532 C1.15766171,21.8267762 1.07467017,22.0075289 0.99660185,22.191095 C0.680811991,22.9401288 0.502872493,23.7623078 0.502872493,24.6259825 C0.502872493,24.6745114 0.50779572,24.7216337 0.508499038,24.7701627 C0.52326872,25.391896 0.625249855,25.9911231 0.807409262,26.5551842 C0.817959034,26.5917568 0.82358558,26.6283293 0.835541988,26.6649019 C2.35400592,31.0465741 4.8184328,34.9985189 7.96367166,38.2710583 C8.01431057,38.3245105 8.06143289,38.3800727 8.11277512,38.4328215 C8.32377057,38.6494435 8.53828261,38.8632522 8.75560792,39.0735444 C9.15790592,39.4631826 9.57075369,39.8429744 9.99344791,40.2115132 C10.6770732,40.8072237 11.3860179,41.3740981 12.1188754,41.9100266 C13.545908,42.9537507 15.0629653,43.8814274 16.6566843,44.6789902 C18.6301951,45.6671522 20.72116,46.4555719 22.9035563,47.0182264 C23.5027834,47.1729564 24.1090436,47.3101035 24.7209304,47.4303709 C24.7666461,47.439514 24.8208016,47.4500638 24.8651107,47.4556903 C25.20411,47.5126591 25.5381861,47.5351653 25.8926585,47.5351653 C26.7795427,47.5351653 27.6221179,47.348786 28.3873281,47.0168198 C28.3957679,47.0133032 28.404911,47.0125999 28.4133508,47.00838 C32.3575591,45.275404 35.8811832,42.7645581 38.7908105,39.6692549 C38.8027669,39.6565951 38.8147233,39.6425288 38.8266797,39.629869 C39.9822314,38.396249 41.0365054,37.0683843 41.9852816,35.6631546 C44.1493916,32.456727 45.7424073,28.8360451 46.6236649,24.9424757 C46.7657352,24.3130059 46.8951458,23.6786129 46.9992369,23.0357801 C47.0118966,22.9745914 47.0196331,22.9112928 47.0308862,22.8486975 C47.0379194,22.8036851 47.0463592,22.759376 47.0533924,22.7143637 C47.054799,22.7038139 47.054799,22.6939675 47.0562056,22.6834177 C47.1026246,22.3753643 47.1342739,22.0630911 47.1342739,21.7416747 C47.1370872,20.3948204 46.7080631,19.1492439 45.9857554,18.1259159 L45.9857554,18.1259159 Z" id="Shape" fill="#878787"></path>
                        <g transform="translate(7.033182, 32.352636)" id="Shape">
                            <path d="M8.79218047,5.76580237 L8.79218047,5.76580237 L8.7893672,5.76439574 C5.62302879,4.38026558 2.69300528,2.53827528 0.0956512714,0.305240087 C0.192709179,2.22811197 0.436760585,4.13058762 0.819365671,5.99789737 C0.920643487,6.00422724 4.4780268,6.21029946 8.79218047,5.76580237 L8.79218047,5.76580237 Z" fill="url(#linearGradient-1)"></path>
                            <path d="M0.969172441,6.16177051 C1.18157453,6.37979914 1.39678989,6.59431118 1.61552184,6.80600995 C2.02063311,7.19846149 2.43559083,7.57965994 2.86039501,7.95030862 C3.54753686,8.5495357 4.26070149,9.11922342 4.99777893,9.65866846 C6.432548,10.7080192 7.95804512,11.6413224 9.56090723,12.4431051 C11.5456711,13.4368937 13.6485924,14.2295333 15.8422418,14.7957044 C16.4449855,14.9511377 17.054059,15.0896914 17.6701658,15.2099588 C17.7158814,15.2191019 17.7707403,15.2296517 17.8150493,15.2352782 C18.1554553,15.292247 18.4916414,15.3154565 18.848927,15.3154565 C19.7407345,15.3154565 20.5882329,15.1283739 21.3576629,14.7942978 C21.3661028,14.7907812 21.3752459,14.7900778 21.3836857,14.7858579 C25.3496969,13.0437388 28.8930138,10.5181233 31.8195207,7.40523703 C31.8314772,7.39187399 31.8434336,7.37851094 31.85539,7.3651479 C29.6856534,7.97070484 27.4272988,8.37651943 25.0943924,8.54742575 C19.3124137,8.97082329 13.76253,7.93624225 8.79499374,5.76650569 L8.79147715,5.76509906 L8.79147715,5.76509906 C4.47732348,6.21029946 0.919940169,6.00352392 0.817959034,5.99719405 L0.817959034,5.99860069 C0.870004579,6.05275619 0.917830215,6.10902164 0.969172441,6.16177051 L0.969172441,6.16177051 Z" fill="url(#linearGradient-2)"></path>
                        </g>
                        <path d="M30.8770744,7.08382063 C29.9121219,7.24206722 28.9457627,7.42633658 27.9794035,7.63662871 C21.7051021,9.00387924 15.9083537,11.3726548 10.7157557,14.5354767 C10.1404414,15.7599536 9.62279923,17.0259263 9.17126896,18.3333948 C7.53183431,23.0807925 6.8890015,27.9308746 7.12812967,32.657876 C9.726187,34.8909112 12.6576171,36.7343081 15.8246589,38.117735 C24.9473989,37.1992014 33.7670088,34.0616991 41.4437266,28.9457627 C40.0581898,20.8702634 36.4206282,13.2589542 30.8770744,7.08382063 L30.8770744,7.08382063 Z" id="Shape" fill="url(#radialGradient-3)"></path>
                        <path d="M0.355175677,24.7743826 C0.369945359,25.3996325 0.472629812,26.0016728 0.656195855,26.5692506 C0.666745627,26.6058231 0.672372173,26.643099 0.6850319,26.6796715 C2.21193565,31.0859599 4.68972557,35.0597076 7.85325071,38.3505333 C7.47134894,36.4867401 7.20760463,34.158757 7.11054672,32.2386984 C4.47943344,29.9782338 2.21052901,27.7409787 0.355175677,24.7743826 L0.355175677,24.7743826 Z" id="Shape" fill="#004B82"></path>
                        <path d="M10.716459,14.5354767 C15.9090571,11.3733582 21.7058054,9.00387924 27.9801068,7.63662871 C28.946466,7.42633658 29.9128252,7.24206722 30.8777777,7.08382063 C28.7368772,4.69957203 26.3097262,2.53194542 23.6202375,0.632283037 C23.0428133,0.740594035 22.4900052,0.918533533 21.9786929,1.17102476 C21.18324,1.55714643 20.5847163,1.88067279 19.9461034,2.23655179 C16.145372,5.58645624 12.973407,9.73111023 10.716459,14.5354767 L10.716459,14.5354767 Z" id="Shape" fill="url(#linearGradient-4)"></path>
                        <path d="M30.8770744,7.08382063 C32.2766776,6.85383559 33.6727641,6.68433591 35.0653341,6.56125523 C32.8660582,4.73473793 30.5549547,3.03763119 28.1397601,1.48822125 C28.1060008,1.46641839 28.0708349,1.45375866 28.0363723,1.43406575 C27.0819695,0.854531579 25.9658036,0.514828902 24.7680527,0.514828902 C24.3741946,0.514828902 23.9929961,0.56195122 23.6195342,0.631579719 C26.3090229,2.53264874 28.7368772,4.69957203 30.8770744,7.08382063 L30.8770744,7.08382063 Z" id="Shape" fill="#FFEC41"></path>
                        <path d="M41.4444299,28.9450594 C43.2751671,27.7248023 45.0397924,26.3899045 46.7291627,24.9481022 C46.8726396,24.3151158 47.0020501,23.6772063 47.1068445,23.0308569 C47.1195043,22.9689649 47.1272408,22.9056662 47.1384938,22.8430709 C47.145527,22.7980585 47.1546702,22.7530462 47.161,22.7080338 C47.1624067,22.6974841 47.1624067,22.6876376 47.1638133,22.6770878 C47.2102323,22.3676278 47.2425849,22.0532446 47.2425849,21.7304216 C47.2425849,20.3751274 46.8114509,19.1225178 46.0849232,18.0942666 C46.0378009,18.0140883 45.987162,17.9353167 45.9287866,17.858655 C42.7413486,13.6978247 39.0939406,9.90904973 35.0653341,6.56336518 C33.6727641,6.68644586 32.2766776,6.85594554 30.8770744,7.08593058 C36.4206282,13.2589542 40.0581898,20.8702634 41.4444299,28.9450594 L41.4444299,28.9450594 Z" id="Shape" fill="url(#linearGradient-5)"></path>
                        <path d="M42.0654599,35.7285631 C44.2415263,32.5045526 45.8436851,28.8627711 46.7291627,24.9481022 C45.0397924,26.3899045 43.2751671,27.7248023 41.4444299,28.9450594 C41.8277383,31.1780946 42.0338106,33.4462957 42.0654599,35.7285631 L42.0654599,35.7285631 Z" id="Shape" fill="#0082C0"></path>
                        <path d="M19.9461034,2.23725511 C11.9381227,6.70191886 5.37335083,13.437597 1.12671571,21.5813181 C1.11686926,21.601011 1.11053939,21.6200006 1.10139626,21.6389902 C1.00715162,21.8141164 0.922753442,21.9955725 0.844685125,22.1805452 C3.81550108,19.2955341 7.11968986,16.7249061 10.7150524,14.5347733 C12.973407,9.73111023 16.145372,5.58645624 19.9461034,2.23725511 L19.9461034,2.23725511 Z" id="Shape" fill="url(#linearGradient-6)"></path>
                        <path d="M15.8253622,38.117735 C20.7936018,40.2888782 26.3448921,41.3241625 32.1282774,40.9000617 C34.4611838,40.7291553 36.7195384,40.3226374 38.889275,39.7177838 C40.0511566,38.4778339 41.1117604,37.1422327 42.0654599,35.7285631 C42.0338106,33.4455924 41.8277383,31.1773913 41.4444299,28.9450594 C33.7684154,34.0616991 24.9488055,37.1992014 15.8253622,38.117735 L15.8253622,38.117735 Z" id="Shape" fill="url(#linearGradient-7)"></path>
                        <path d="M0.355175677,24.7743826 C2.21052901,27.7402753 4.49912635,30.3967081 7.12883299,32.6571727 C6.88970481,27.9308746 7.53253762,23.0807925 9.17197228,18.3326915 C9.62350255,17.025223 10.1411447,15.7592503 10.716459,14.5347733 C7.12109649,16.7242028 3.81690772,19.2955341 0.846091761,22.1805452 C0.528191947,22.933799 0.349549132,23.7601978 0.349549132,24.6294991 C0.348845813,24.6787313 0.353769041,24.7258537 0.355175677,24.7743826 L0.355175677,24.7743826 Z" id="Shape" fill="url(#linearGradient-8)"></path>
                    </g>
                </g>
                <g id="schrift" transform="translate(64.001954, 7.736500)" fill="#1D1D1B">
                    <g id="Group">
                        <path d="M7.26176013,0.777869898 C11.2650472,0.777869898 14.2527428,3.76556549 14.2527428,7.76885253 C14.2527428,11.7327537 11.2650472,14.7204493 7.26176013,14.7204493 C3.29785891,14.7204493 0.310163314,11.7327537 0.310163314,7.76885253 C0.310163314,3.76556549 3.29785891,0.777869898 7.26176013,0.777869898 L7.26176013,0.777869898 Z M7.26176013,12.7687414 C10.1495845,12.7687414 12.2011636,10.6172911 12.2011636,7.76955585 C12.2011636,4.88173143 10.1495845,2.74997405 7.26176013,2.74997405 C4.41332153,2.74997405 2.34204951,4.88102811 2.34204951,7.76955585 C2.34204951,10.6179944 4.41332153,12.7687414 7.26176013,12.7687414 L7.26176013,12.7687414 Z" id="Shape"></path>
                        <path d="M18.8770597,0.379791813 L18.8770597,11.6532788 C18.8770597,12.5296132 19.2751378,12.9480875 19.9130474,12.9480875 C20.3709075,12.9480875 20.7492927,12.8088306 21.1283812,12.5893953 L21.2880344,14.2428963 C20.8301743,14.4623316 20.0333148,14.7211527 19.1569804,14.7211527 C17.7426075,14.7211527 16.806491,14.0037681 16.806491,12.1315352 L16.806491,0.379791813 L18.8770597,0.379791813 L18.8770597,0.379791813 Z" id="Shape"></path>
                        <path d="M25.0325004,4.10456485 L25.0325004,5.6778876 C25.7892707,4.62220703 26.9842083,3.90482249 28.6574022,3.90482249 C30.6295064,3.90482249 31.685187,4.70168198 32.2626112,6.01618364 C32.9595995,4.90072102 34.2944974,3.9245154 36.2265124,3.9245154 C39.0348619,3.9245154 40.1904136,5.93600537 40.1904136,8.52562288 L40.1904136,14.520707 L38.1191416,14.520707 L38.1191416,8.84422601 C38.1191416,7.0711609 37.3820642,5.83683751 35.5499203,5.83683751 C33.9168155,5.83683751 32.980699,6.85242895 32.6416997,7.9882878 L32.6416997,14.5214103 L30.5704277,14.5214103 L30.5704277,8.82453311 C30.5704277,7.05146799 29.8333502,5.83683751 28.0012064,5.83683751 C26.3477054,5.83683751 25.4115889,6.87282518 25.0332037,8.00798071 L25.0332037,14.5214103 L22.9619317,14.5214103 L22.9619317,4.10386153 L25.0325004,4.10386153 L25.0325004,4.10456485 Z" id="Shape"></path>
                        <path d="M43.3602686,4.64260325 C44.3561672,4.22412894 45.830322,3.92521872 47.1645166,3.92521872 C50.1325193,3.92521872 51.367546,5.65819469 51.367546,7.88911994 L51.367546,14.5221136 L49.296274,14.5221136 L49.296274,13.3869581 C48.5591966,14.0839464 47.503516,14.7211527 45.9702824,14.7211527 C43.7393571,14.7211527 42.4248555,13.5058189 42.4248555,11.5942001 C42.4248555,9.10445374 44.4363454,7.90951616 47.3248732,7.90951616 C48.0619506,7.90951616 48.7188498,7.98899112 49.2969773,8.10855521 L49.2969773,7.98899112 C49.2969773,6.43536127 48.540207,5.69828383 47.00627,5.69828383 C45.9105003,5.69828383 44.6360878,5.99719405 43.7393571,6.43536127 L43.3602686,4.64260325 L43.3602686,4.64260325 Z M46.6074886,13.0676516 C47.8425153,13.0676516 48.7589389,12.4902274 49.296274,12.0119711 L49.296274,9.60169969 C48.8981959,9.50182851 48.3200684,9.42235355 47.7426442,9.42235355 C45.9105003,9.42235355 44.4961275,10.020174 44.4961275,11.3740615 C44.4961275,12.5099203 45.3323728,13.0676516 46.6074886,13.0676516 L46.6074886,13.0676516 Z" id="Shape"></path>
                        <polygon id="Shape" points="72.5233566 4.26351476 67.404607 10.437945 67.0065289 10.437945 61.8877792 4.26351476 61.8877792 14.5214103 59.8165072 14.5214103 59.8165072 0.977612259 61.7084331 0.977612259 67.2055679 7.61060594 72.723099 0.977612259 74.595332 0.977612259 74.595332 14.5221136 72.52406 14.5221136 72.52406 4.26351476"></polygon>
                        <path d="M87.2853017,13.3862548 C86.2099283,14.2625892 84.7160805,14.8006276 82.9627083,14.8006276 C79.0388962,14.8006276 77.3256131,12.3706633 77.3256131,9.3428786 C77.3256131,6.27570805 79.4369743,3.82534754 82.7833621,3.82534754 C85.9504039,3.82534754 87.4245587,5.77705547 87.4245587,8.16763393 C87.4245587,8.78514729 87.3246876,9.62139259 87.2051235,9.99977777 L79.4566672,9.99977777 C79.6557062,11.8122287 80.7514759,13.0472554 83.021787,13.0472554 C84.4558527,13.0472554 85.6711865,12.4895241 86.4673427,11.8917037 L87.2853017,13.3862548 L87.2853017,13.3862548 Z M85.433465,7.82933789 C85.433465,6.63440032 84.6169126,5.55832351 82.7446796,5.55832351 C80.7929717,5.55832351 79.6571129,6.87282518 79.4981629,8.38636588 L85.3940792,8.38636588 C85.4130688,8.22741598 85.433465,8.00868403 85.433465,7.82933789 L85.433465,7.82933789 Z" id="Shape"></path>
                        <path d="M97.1873183,6.47474709 C96.3109839,6.03657987 95.0562642,5.6778876 93.9204054,5.6778876 C92.6255966,5.6778876 91.8885192,6.13574773 91.8885192,7.0324784 C91.8885192,7.74986294 92.3069935,7.90881285 93.4020599,8.18803016 L95.115343,8.60650447 C97.2267041,9.10445374 98.1030386,10.0405702 98.1030386,11.5147251 C98.1030386,13.4467401 96.4101517,14.721856 93.7804451,14.721856 C92.00738,14.721856 90.6134033,14.2239067 89.8369401,13.8258286 L90.2350182,12.0330706 C91.0916597,12.4909307 92.3463793,12.98888 93.7009701,12.98888 C95.0752538,12.98888 96.0113703,12.5106236 96.0113703,11.6546854 C96.0113703,11.0174792 95.393857,10.6587869 94.3381764,10.3999658 L92.7050716,10.0018877 C90.7132745,9.52363137 89.8369401,8.74716811 89.8369401,7.19353826 C89.8369401,5.24183034 91.3307879,3.92662535 94.0793553,3.92662535 C95.4135499,3.92662535 96.9474868,4.30501053 97.7443463,4.68339571 L97.1873183,6.47474709 L97.1873183,6.47474709 Z" id="Shape"></path>
                        <path d="M107.387542,6.47474709 C106.511207,6.03657987 105.256488,5.6778876 104.120629,5.6778876 C102.82582,5.6778876 102.088743,6.13574773 102.088743,7.0324784 C102.088743,7.74986294 102.507217,7.90881285 103.602283,8.18803016 L105.315566,8.60650447 C107.426928,9.10445374 108.303262,10.0405702 108.303262,11.5147251 C108.303262,13.4467401 106.610375,14.721856 103.980669,14.721856 C102.207603,14.721856 100.813627,14.2239067 100.037164,13.8258286 L100.435242,12.0330706 C101.291883,12.4909307 102.546603,12.98888 103.901194,12.98888 C105.275477,12.98888 106.211594,12.5106236 106.211594,11.6546854 C106.211594,11.0174792 105.59408,10.6587869 104.5384,10.3999658 L102.905295,10.0018877 C100.913498,9.52363137 100.037164,8.74716811 100.037164,7.19353826 C100.037164,5.24183034 101.531011,3.92662535 104.279579,3.92662535 C105.613773,3.92662535 107.14771,4.30501053 107.94457,4.68339571 L107.387542,6.47474709 L107.387542,6.47474709 Z" id="Shape"></path>
                        <path d="M120.036719,13.3862548 C118.961346,14.2625892 117.467498,14.8006276 115.714126,14.8006276 C111.790314,14.8006276 110.07703,12.3706633 110.07703,9.3428786 C110.07703,6.27570805 112.188392,3.82534754 115.534779,3.82534754 C118.701821,3.82534754 120.175976,5.77705547 120.175976,8.16763393 C120.175976,8.78514729 120.076105,9.62139259 119.956541,9.99977777 L112.208084,9.99977777 C112.407124,11.8122287 113.502893,13.0472554 115.773204,13.0472554 C117.20727,13.0472554 118.422604,12.4895241 119.21876,11.8917037 L120.036719,13.3862548 L120.036719,13.3862548 Z M118.184179,7.82933789 C118.184179,6.63440032 117.367627,5.55832351 115.495394,5.55832351 C113.543686,5.55832351 112.407827,6.87282518 112.248877,8.38636588 L118.144793,8.38636588 C118.164486,8.22741598 118.184179,8.00868403 118.184179,7.82933789 L118.184179,7.82933789 Z" id="Shape"></path>
                        <path d="M125.157579,4.10456485 L125.157579,5.71797674 C125.934042,4.62220703 127.209158,3.92521872 128.882352,3.92521872 C131.710394,3.92521872 132.945421,5.93670869 132.945421,8.5263262 L132.945421,14.5214103 L130.874149,14.5214103 L130.874149,8.84492933 C130.874149,7.07186422 130.057596,5.83754083 128.224749,5.83754083 C126.571248,5.83754083 125.535964,6.95300345 125.157579,8.08815898 L125.157579,14.5214103 L123.086307,14.5214103 L123.086307,4.10386153 L125.157579,4.10386153 L125.157579,4.10456485 Z" id="Shape"></path>
                        <path d="M0.888290851,30.5437016 C1.80471443,31.1211258 3.41812632,31.7984212 5.19048811,31.7984212 C7.16259226,31.7984212 8.51647975,31.0416508 8.51647975,29.706753 C8.51647975,28.7509436 7.81949144,28.2129052 6.16599041,27.8148271 L3.73602613,27.2170066 C1.46501175,26.6789682 0.35025245,25.4643377 0.35025245,23.6912726 C0.35025245,21.5602186 2.00375347,19.7871535 5.5885662,19.7871535 C7.48049208,19.7871535 9.31333924,20.3251919 10.3289307,20.8625269 L9.73111023,22.774849 C8.77530083,22.1974248 7.02192863,21.6994756 5.50838792,21.6994756 C3.39702677,21.6994756 2.50099942,22.4963351 2.50099942,23.5119265 C2.50099942,24.448043 3.13820568,24.9059031 4.37323239,25.2449025 L7.00223572,25.9221979 C9.39211087,26.5594041 10.6672267,27.6354809 10.6672267,29.5470997 C10.6672267,32.056539 8.35682652,33.71004 5.14969566,33.71004 C3.19798773,33.71004 1.24557648,33.0327446 0.388934949,32.5347953 L0.888290851,30.5437016 L0.888290851,30.5437016 Z" id="Shape"></path>
                        <path d="M15.5299686,20.4447559 L15.5299686,23.0941555 L19.5930376,23.0941555 L19.5930376,24.7272603 L15.5299686,24.7272603 L15.5299686,29.905792 C15.5299686,31.2603828 16.127789,31.8975891 17.2031625,31.8975891 C18.000022,31.8975891 18.9361385,31.5192039 19.5135627,31.1007296 L20.1908581,32.7141415 C19.2547416,33.2915657 18.0197149,33.71004 16.5856491,33.71004 C14.6536341,33.71004 13.4586965,32.5347953 13.4586965,30.3038701 L13.4586965,24.726557 L11.5069886,24.726557 L11.5069886,23.0934522 L13.4586965,23.0934522 L13.6978247,20.4440526 L15.5299686,20.4440526 L15.5299686,20.4447559 Z" id="Shape"></path>
                        <path d="M23.7974737,30.9614726 C24.693501,30.9614726 25.2118465,31.4594218 25.2118465,32.3554492 C25.2118465,33.2718728 24.6942043,33.7494258 23.7974737,33.7494258 C22.900743,33.7494258 22.4034971,33.2711694 22.4034971,32.3554492 C22.4034971,31.4594218 22.9014463,30.9614726 23.7974737,30.9614726 L23.7974737,30.9614726 Z" id="Shape"></path>
                        <path d="M40.2902848,31.9179853 C39.0355652,32.8941909 36.6653829,33.7107433 34.5934076,33.7107433 C30.5901206,33.7107433 27.3829897,31.1211258 27.3829897,26.7591465 C27.3829897,22.3570781 30.5901206,19.7681639 34.5934076,19.7681639 C36.7842437,19.7681639 38.4180518,20.5052413 39.7719393,21.6403968 L38.7760408,23.2341158 C37.6605782,22.2579102 36.3657694,21.7001789 34.6327934,21.7001789 C31.7646619,21.7001789 29.5140438,23.5527189 29.5140438,26.7591465 C29.5140438,29.9261882 31.7646619,31.7787283 34.7129717,31.7787283 C36.0471663,31.7787283 37.341975,31.3806502 38.2183095,30.8229189 L38.2183095,27.7353521 L34.0152801,27.7353521 L34.0152801,25.9229012 L40.2895815,25.9229012 L40.2895815,31.9179853 L40.2902848,31.9179853 Z" id="Shape"></path>
                        <path d="M43.1408334,23.6321939 C44.1367319,23.2137196 45.6108868,22.9148094 46.9450814,22.9148094 C49.913084,22.9148094 51.1481107,24.6477853 51.1481107,26.8787106 L51.1481107,33.5117043 L49.0768387,33.5117043 L49.0768387,32.3765487 C48.3397613,33.073537 47.2840807,33.7107433 45.7508471,33.7107433 C43.5199219,33.7107433 42.2054202,32.4954095 42.2054202,30.5837907 C42.2054202,28.0940444 44.2169102,26.8991068 47.1054379,26.8991068 C47.8425153,26.8991068 48.4994145,26.9785818 49.077542,27.0981459 L49.077542,26.9785818 C49.077542,25.4249519 48.3207717,24.6878745 46.7868348,24.6878745 C45.6910651,24.6878745 44.4166525,24.9867847 43.5199219,25.4249519 L43.1408334,23.6321939 L43.1408334,23.6321939 Z M46.38735,32.0572423 C47.6223768,32.0572423 48.5388003,31.4798181 49.0761354,31.0015617 L49.0761354,28.5912903 C48.6780573,28.4914192 48.0999298,28.4119442 47.5225056,28.4119442 C45.6903617,28.4119442 44.2759889,29.0097646 44.2759889,30.3636521 C44.2759889,31.499511 45.1129375,32.0572423 46.38735,32.0572423 L46.38735,32.0572423 Z" id="Shape"></path>
                        <path d="M56.3090595,19.3693825 L56.3090595,30.6428694 C56.3090595,31.5192039 56.7071376,31.9376782 57.3450472,31.9376782 C57.8029073,31.9376782 58.1812925,31.7984212 58.560381,31.5789859 L58.7200342,33.232487 C58.2621741,33.4519222 57.4653146,33.7107433 56.5889801,33.7107433 C55.1746073,33.7107433 54.2384908,32.9933588 54.2384908,31.1211258 L54.2384908,19.3693825 L56.3090595,19.3693825 L56.3090595,19.3693825 Z" id="Shape"></path>
                        <path d="M62.5031826,19.3693825 L62.5031826,30.6428694 C62.5031826,31.5192039 62.9012607,31.9376782 63.5391703,31.9376782 C63.9970304,31.9376782 64.3754156,31.7984212 64.7545041,31.5789859 L64.9141573,33.232487 C64.4562972,33.4519222 63.6594377,33.7107433 62.7831033,33.7107433 C61.3687304,33.7107433 60.4326139,32.9933588 60.4326139,31.1211258 L60.4326139,19.3693825 L62.5031826,19.3693825 L62.5031826,19.3693825 Z" id="Shape"></path>
                        <path d="M75.8887341,32.3758454 C74.8133606,33.2521799 73.3195128,33.7902183 71.5661406,33.7902183 C67.6423285,33.7902183 65.9290455,31.360254 65.9290455,28.3324692 C65.9290455,25.2652987 68.0404066,22.8149382 71.3867945,22.8149382 C74.5538362,22.8149382 76.0279911,24.7666461 76.0279911,27.1572246 C76.0279911,27.7747379 75.9281199,28.6109832 75.8085558,28.9893684 L68.0600995,28.9893684 C68.2591386,30.8018193 69.3549083,32.0368461 71.6252193,32.0368461 C73.0592851,32.0368461 74.2746189,31.4791147 75.0707751,30.8812943 L75.8887341,32.3758454 L75.8887341,32.3758454 Z M74.0368973,26.8189285 C74.0368973,25.623991 73.2203449,24.5479142 71.348112,24.5479142 C69.396404,24.5479142 68.2605452,25.8624158 68.1015953,27.3759565 L73.9975115,27.3759565 C74.0165011,27.2170066 74.0368973,26.9982747 74.0368973,26.8189285 L74.0368973,26.8189285 Z" id="Shape"></path>
                        <path d="M80.6319118,23.0941555 L80.6319118,24.7075674 C81.4083751,23.6117977 82.6834909,22.9148094 84.3566849,22.9148094 C87.1847273,22.9148094 88.419754,24.9262993 88.419754,27.5159168 L88.419754,33.5110009 L86.3484819,33.5110009 L86.3484819,27.83452 C86.3484819,26.0614549 85.5319295,24.8271315 83.6990824,24.8271315 C82.0455814,24.8271315 81.010297,25.9425941 80.6319118,27.0777496 L80.6319118,33.5110009 L78.5606398,33.5110009 L78.5606398,23.0934522 L80.6319118,23.0934522 L80.6319118,23.0941555 Z" id="Shape"></path>
                    </g>
                </g>
            </g>
        </g>
    </g>
</svg>