<svg viewBox="0 0 128 128" xml:space="preserve" xmlns="http://www.w3.org/2000/svg" enable-background="new 0 0 128 128"><path d="M112 105H16c-5.514 0-10-4.486-10-10V30c0-5.514 4.486-10 10-10h96c5.514 0 10 4.486 10 10v65c0 5.514-4.486 10-10 10zM16 24c-3.309 0-6 2.691-6 6v65c0 3.309 2.691 6 6 6h96c3.309 0 6-2.691 6-6V30c0-3.309-2.691-6-6-6H16z" fill="#00534c" class="fill-505070"></path><path d="M64 65.04a5.989 5.989 0 0 1-3.456-1.101L8.003 33.734a2.001 2.001 0 0 1-.737-2.731 2.004 2.004 0 0 1 2.731-.737l52.816 30.379a1.997 1.997 0 0 0 2.373 0l.188-.123 52.629-30.256a2.001 2.001 0 0 1 1.994 3.468L67.456 63.939A5.989 5.989 0 0 1 64 65.04z" fill="#00534c" class="fill-505070"></path></svg>