<svg viewBox="0 0 50 50" xml:space="preserve" xmlns="http://www.w3.org/2000/svg"><path fill="none" d="M0 0h50v50H0z"></path><path d="M14.748 30.217s2.318 4.049 2.875 5.109c.559 1.057.7 2.152.294 2.817-.616 1.007-6.241 9.463-6.739 10.175-.499.712-1.924 1.055-3.32.076C6.461 47.42.941 42.922 1 41.016c.062-1.909.236-9.846 15.207-24.813C31.174 1.238 39.113 1.061 41.021 1s6.408 5.459 7.384 6.855c.975 1.398.608 2.825-.078 3.321-.781.564-9.21 6.124-10.177 6.736-.659.419-1.76.265-2.818-.294-1.061-.556-5.109-2.874-5.109-2.874s-2.787 1.634-8.312 7.16c-5.526 5.527-7.163 8.313-7.163 8.313z" fill="none" stroke="#00534c" stroke-miterlimit="10" stroke-width="2" class="stroke-000000"></path></svg>