<svg width="50" height="50" viewBox="0 0 50 50" fill="none" xmlns="http://www.w3.org/2000/svg">
<path d="M24.96 1.69973C30.4 6.0664 36.1933 8.43973 42.34 8.81973C42.85 8.84973 43.25 9.26973 43.25 9.77973V20.2597C43.25 20.6297 43.13 20.9497 42.92 21.1197C42.5733 21.3931 42.2667 21.2931 42 20.8197C41.8733 20.6131 41.8067 20.3431 41.8 20.0097C41.74 17.2297 41.7267 14.1631 41.76 10.8097C41.77 10.3697 41.41 9.99973 40.97 9.98973C35.5833 9.8564 30.5167 7.78307 25.77 3.76973C25.34 3.39973 24.69 3.41973 24.29 3.82973C20.1033 8.08307 14.9167 10.2231 8.73 10.2497C8.42 10.2497 8.16 10.5097 8.17 10.8297C8.25667 14.7964 8.25 18.5197 8.15 21.9997C8.07667 24.6064 8.45667 27.1431 9.29 29.6097C11.89 37.2231 16.88 42.9297 24.26 46.7297C24.73 46.9697 25.29 46.9597 25.76 46.7197C29.9333 44.5331 33.4333 41.6931 36.26 38.1997C36.48 37.9297 36.75 37.7397 37.03 37.6597C37.99 37.3931 38.0333 37.8197 37.16 38.9397C33.9867 43.0131 30.18 46.1297 25.74 48.2897C25.32 48.4997 24.82 48.4997 24.4 48.2897C16.1867 44.2697 10.7233 38.2764 8.01 30.3097C7.17 27.8431 6.75 24.5797 6.75 20.5197C6.75 16.8264 6.75 13.1897 6.75 9.60973C6.75 9.22973 7.07 8.91973 7.45 8.92973C14.6433 9.02973 20.2933 6.63973 24.4 1.75973C24.54 1.58973 24.79 1.56973 24.96 1.69973Z" fill="#00A299"/>
<path d="M39.05 12.6903C39.31 12.7303 39.5 12.9603 39.5 13.2203C39.5 15.6737 39.5 18.1237 39.5 20.5703C39.5 23.5503 39.25 25.9803 38.75 27.8603C36.8367 35.007 32.7133 40.197 26.38 43.4303C25.36 43.9503 24.37 43.897 23.41 43.2703C17.03 39.117 12.9667 33.9303 11.22 27.7103C10.74 26.0037 10.5 23.6703 10.5 20.7103C10.5 18.537 10.5 16.1803 10.5 13.6403C10.5 13.0803 10.92 12.6203 11.47 12.5703C16.45 12.1103 20.64 10.367 24.04 7.34033C24.55 6.89033 25.31 6.84033 25.88 7.22033C30.12 10.107 34.51 11.9303 39.05 12.6903ZM25.95 8.85033C25.54 8.55033 24.98 8.56033 24.59 8.88033C21.1433 11.6337 17.1733 13.3003 12.68 13.8803C12.39 13.9203 12.17 14.1403 12.13 14.4303C11.9433 16.117 11.82 17.8037 11.76 19.4903C11.3733 29.8903 15.64 37.4837 24.56 42.2703C24.84 42.4103 25.17 42.4103 25.45 42.2703C30.5033 39.5637 34.14 35.7037 36.36 30.6903C37.32 28.517 37.8533 25.8137 37.96 22.5803C38.0467 19.9403 38.05 17.1503 37.97 14.2103C37.96 13.8303 37.68 13.5203 37.3 13.4803C33.2 12.9937 29.4167 11.4503 25.95 8.85033Z" fill="#00A299"/>
<path d="M31.1803 20.4996C31.8469 19.8596 32.1869 20.0029 32.2003 20.9296C32.2069 21.3096 31.9369 21.7163 31.3903 22.1496C30.8236 22.6029 30.4636 22.9063 30.3103 23.0596C27.8036 25.5663 25.2469 28.1263 22.6403 30.7396C22.3203 31.0596 21.8103 31.0696 21.5203 30.7696L18.0603 27.1396C17.7903 26.8496 17.7503 26.4596 17.9803 26.3196C18.4203 26.0596 19.4036 26.8196 20.9303 28.5996C21.3503 29.0896 22.1103 29.1296 22.5903 28.6696L31.1803 20.4996Z" fill="#00A299"/>
<path d="M41.8108 27.5999C41.6308 25.9132 41.8507 25.0966 42.4707 25.1499C42.7507 25.1699 42.9908 25.4399 43.0608 25.7999C43.2541 26.7132 43.1074 27.4099 42.6207 27.8899C42.1541 28.3432 41.8841 28.2466 41.8108 27.5999Z" fill="#00A299"/>
<path d="M40.6209 31.9199C41.1409 31.6666 41.3176 31.9266 41.1509 32.6999C41.1043 32.9333 40.9976 33.1533 40.8309 33.3599C39.2976 35.2333 39.0209 34.9933 40.0009 32.6399C40.1309 32.3099 40.3609 32.0499 40.6209 31.9199Z" fill="#00A299"/>
</svg>
