<svg width="43" height="50" viewBox="0 0 43 50" fill="none" xmlns="http://www.w3.org/2000/svg">
<path fill-rule="evenodd" clip-rule="evenodd" d="M12.6316 0C12.8247 0 14.2923 1.01554 15.8372 2.30449C17.3434 3.55438 19.6607 5.70264 20.9352 7.06971C22.4415 8.71019 23.407 10.1554 23.7546 11.249C23.9863 12.1474 24.3726 12.8895 24.527 12.8895C24.6815 12.8895 25.0291 12.6552 25.2995 12.4208C25.6471 12.0302 25.956 12.1083 26.7285 12.8895C27.2692 13.4364 27.8871 14.2957 28.0802 14.8425C28.2733 15.3893 28.6209 16.2877 28.8527 16.9126C29.2003 17.85 29.3161 17.9282 30.0499 17.4985C30.7451 17.0298 30.9769 17.147 31.981 18.3578C32.599 19.0999 33.2941 20.3498 33.5259 21.0919C33.7576 21.8341 34.1052 22.6543 34.2983 22.8496C34.53 23.11 34.6459 23.084 34.6459 22.7715C34.6459 22.4981 34.9549 22.2637 35.3411 22.2637C35.6887 22.2247 36.268 22.5371 36.6156 22.9277C36.9632 23.3183 37.5425 24.2167 37.8901 24.9197C38.2377 25.5838 38.5081 26.5993 38.5081 27.1461C38.5081 27.6929 38.3922 28.1226 38.2377 28.1226C38.0446 28.1226 37.4653 27.068 36.886 25.779C36.268 24.4901 35.6114 23.5136 35.4183 23.6308C35.2252 23.748 34.6845 24.5682 34.2597 25.5056C33.7962 26.5212 33.4873 27.9664 33.4873 29.2944C33.4873 30.6224 33.7962 32.0676 34.2597 33.1222C34.6845 34.0205 35.148 34.7627 35.3411 34.7627C35.4956 34.8017 35.8818 34.4892 36.1908 34.0986C36.4997 33.7471 36.9632 32.8097 37.2336 32.0285C37.4653 31.2864 37.9287 30.6224 38.2763 30.5833C38.7398 30.5052 38.8557 30.7005 38.6626 31.3645C38.5467 31.8332 38.1605 32.8878 37.1563 35.1532L38.3536 36.4422C39.0101 37.1062 40.0143 38.4733 40.555 39.4498C41.0957 40.4262 41.8681 42.4573 42.293 43.9416C42.7564 45.4258 43.0654 47.1835 42.9882 47.8475C42.9496 48.5115 42.7951 49.2536 42.6406 49.527C42.4861 49.7614 41.9068 49.9957 41.2888 49.9957C40.7095 50.0348 40.0529 49.8004 39.8212 49.527C39.5895 49.2536 39.2805 47.9646 39.126 46.6757C38.9715 45.3867 38.4694 43.4728 37.9674 42.3792C37.5039 41.3246 36.5384 39.7622 34.6459 37.4968L32.9852 38.3561C31.7879 38.981 30.7065 39.2154 28.8527 39.2154C26.7671 39.2154 25.9947 39.0201 24.2181 38.0436C23.0208 37.3406 22.0553 36.4813 21.978 36.0907C21.9008 35.661 22.0939 35.2314 22.4415 35.0751C22.8277 34.8798 22.9822 34.4502 22.8663 33.9815C22.7118 33.2784 22.8663 33.2003 24.2953 33.2003C25.2609 33.2003 26.6899 32.8488 27.6554 32.341C28.5823 31.8332 29.3547 31.2473 29.3547 31.052C29.3547 30.8567 28.5823 30.2708 27.6554 29.7631C26.5354 29.2163 25.2995 28.9038 24.025 28.9038C22.9436 28.9038 21.3601 29.2553 20.4332 29.685C19.5449 30.1146 18.7338 30.6614 18.6179 30.8567C18.5021 31.052 18.8497 31.5207 19.3904 31.8332C19.9311 32.1457 20.3559 32.6144 20.3559 32.8097C20.3559 33.005 20.0469 33.2003 19.6607 33.2003C19.3131 33.1612 18.4634 32.7316 17.8455 32.2238C16.8413 31.3645 16.7641 31.1692 17.1503 30.4661C17.6138 29.724 17.4593 29.6068 15.142 28.5132C13.7516 27.8492 12.5157 27.0289 12.3999 26.6774C12.2454 26.2868 12.3226 25.6619 12.593 25.3103C12.8247 24.9197 12.9019 24.5292 12.7088 24.451C12.5543 24.3729 11.8978 24.1776 11.2798 24.0214C10.6619 23.8651 9.42599 23.2793 8.57632 22.6543C7.72664 22.0684 5.98867 20.3889 4.71416 18.9046C3.40102 17.4204 1.77891 15.4284 1.0451 14.53C-0.0749242 13.0848 -0.229411 12.7723 0.27267 12.4599C0.697508 12.1865 1.08372 12.4208 1.74029 13.202C2.24237 13.7879 3.78724 15.5455 5.13899 17.1079C7.57215 19.8811 7.61078 19.9202 9.54186 18.7484L6.06591 14.9206C4.17345 12.8505 2.58997 10.8194 2.58997 10.4679C2.58997 10.0382 2.86032 9.76479 3.24653 9.80385C3.63275 9.80385 5.48659 11.6006 7.41767 13.7488C9.34875 15.9361 11.1253 17.811 11.3957 17.9282C11.666 18.0453 11.9364 18.0453 12.0523 17.8891C12.1681 17.6938 11.6274 16.8345 10.8936 15.9361C10.1212 14.9987 9.27151 13.3973 8.92391 12.3036C8.61494 11.249 8.38321 10.1944 8.38321 9.96009C8.38321 9.76479 7.88113 9.06173 7.22456 8.39772C6.56799 7.77277 6.06591 6.99159 6.06591 6.75723C6.06591 6.48382 6.37488 6.24947 6.72248 6.24947C7.1087 6.24947 7.91975 6.75724 8.57632 7.42124C9.19426 8.08525 10.0053 8.59302 10.3143 8.59302C10.6233 8.59302 11.666 8.82737 12.6316 9.1789C13.5971 9.49138 15.1034 10.3507 15.9917 11.1319C17.3048 12.1865 17.6524 12.3427 17.6138 11.8349C17.6138 11.4443 15.7986 9.45232 13.5585 7.42124C11.3571 5.39016 9.54186 3.47627 9.54186 3.24191C9.54186 2.9685 9.77359 2.65602 10.0053 2.5779C10.2757 2.46073 12.2454 3.94498 14.3696 5.85887C16.4937 7.77277 18.3476 9.33514 18.5021 9.3742C18.6952 9.3742 19.0042 8.98361 19.2745 8.5149C19.6607 7.69465 19.4676 7.42124 17.2276 5.35111C15.8758 4.10121 14.1764 2.69508 13.5199 2.22637C12.8247 1.75766 12.2454 1.0546 12.2454 0.703065C12.2454 0.312473 12.4385 0 12.6316 0V0ZM19.1973 14.4519C19.1973 15.7799 19.5062 17.2251 19.9697 18.2797C20.3945 19.178 20.8194 19.9202 20.9352 19.9202C21.0511 19.9202 21.4759 19.178 21.9008 18.2797C22.3642 17.2251 22.6732 15.7799 22.6732 14.4519C22.6732 13.1239 22.3642 11.6787 21.9008 10.6632C21.4759 9.72573 21.0511 8.98361 20.9739 8.98361C20.858 8.98361 20.4332 9.72573 20.0083 10.6632C19.5062 11.7177 19.1973 13.0848 19.1973 14.4519ZM11.7047 14.1785C12.2067 14.9597 13.2882 16.0533 14.0606 16.5611C14.8716 17.1079 16.0303 17.6547 16.6869 17.811C17.8455 18.1235 17.8455 18.1235 17.5365 16.7564C17.382 16.0143 16.8413 14.8034 16.3779 14.0613C15.8758 13.3192 14.8716 12.3036 14.1378 11.8349C13.404 11.3662 12.2454 10.8584 11.5888 10.7022C10.3529 10.4288 10.3143 10.4679 10.546 11.5615C10.6619 12.1865 11.164 13.3582 11.7047 14.1785ZM25.0291 15.2331C24.6043 15.9752 24.1408 17.3032 23.9863 18.1625C23.8705 19.0218 23.8705 20.1545 23.9863 20.7014C24.1408 21.2482 24.5657 22.3418 24.9133 23.1621C25.2609 23.9823 25.6857 24.6073 25.8402 24.6073C26.0333 24.6073 26.5354 23.787 26.9602 22.7715C27.6554 21.2482 27.7713 20.467 27.5781 18.5531C27.4237 17.2642 26.9988 15.7018 26.574 15.0378L25.8402 13.866L25.0291 15.2331ZM10.5846 20.2326C9.77359 20.5842 9.11702 21.0138 9.11702 21.2091C9.15564 21.3654 9.88945 21.8341 10.7777 22.2637C11.7433 22.6934 13.2495 23.0449 14.3696 23.0449C15.4896 23.0449 16.9958 22.6934 17.9227 22.2637C19.3517 21.5997 19.5062 21.4044 19.0814 20.8576C18.811 20.5451 17.7296 19.9983 16.6869 19.6858C15.6054 19.3733 14.4854 19.139 14.1765 19.178C13.8289 19.2171 13.2495 19.2952 12.8247 19.4124C12.3999 19.4905 11.3957 19.8811 10.5846 20.2326ZM28.8527 24.412C28.8527 25.5447 29.1616 27.068 29.6251 28.0445C30.2817 29.4506 30.4748 29.6068 31.0155 29.2163C31.3244 28.9428 31.8651 27.732 32.2127 26.5602C32.5603 25.1932 32.6762 23.9042 32.5217 23.0449C32.3672 22.3028 31.9424 21.0919 31.5948 20.3889C31.2472 19.6858 30.8224 19.139 30.6679 19.139C30.4748 19.139 30.0113 19.8811 29.6251 20.8185C29.2003 21.7169 28.8527 23.3183 28.8527 24.412ZM21.9008 22.8496C22.0939 22.9668 22.4029 22.9668 22.5573 22.8496C22.7118 22.7324 22.5573 22.3418 22.1711 21.9513C21.5146 21.3263 21.4759 21.3263 21.5146 21.9903C21.5146 22.3418 21.669 22.7324 21.9008 22.8496ZM14.0992 26.1696C14.1378 26.3649 14.7558 26.8336 15.5282 27.1461C16.262 27.4586 17.6138 27.8101 18.5021 27.9273C19.5449 28.0445 20.858 27.8882 22.0553 27.4586C23.098 27.068 24.025 26.5212 24.1022 26.2868C24.1408 26.0134 23.4843 25.4275 22.5573 24.9979C21.669 24.5682 20.1242 24.2167 19.1973 24.2167C18.2317 24.2167 16.6869 24.5682 15.7599 24.9979C14.833 25.3885 14.0992 25.9353 14.0992 26.1696ZM26.9216 27.732C27.3464 27.9664 27.7326 27.9664 27.7713 27.7711C27.8099 27.5758 27.5781 27.2242 27.2306 26.9899C26.8443 26.6774 26.574 26.6383 26.3809 26.9508C26.265 27.1461 26.4967 27.5367 26.9216 27.732ZM32.1741 32.7706C32.8307 32.8878 32.8307 32.8488 32.3286 32.2629C31.981 31.9113 31.5948 31.5989 31.4017 31.6379C31.2086 31.6379 31.1313 31.8723 31.2472 32.1457C31.3244 32.38 31.7493 32.6925 32.1741 32.7706ZM23.9477 35.8563C23.8705 36.0907 24.3726 36.5984 25.0677 36.95C25.7629 37.3015 27.1919 37.6921 28.2733 37.7702C29.741 37.9264 30.6679 37.7702 32.2514 37.0671L34.3369 36.1297C32.9079 35.0361 31.9038 34.5674 31.17 34.333C30.3975 34.1377 29.2775 33.9815 28.6596 34.0205C28.003 34.0205 26.7285 34.333 25.8016 34.6845C24.836 35.0361 24.025 35.5829 23.9477 35.8563ZM37.0404 38.278C37.697 39.0201 38.6626 40.5434 39.126 41.598C39.6281 42.6917 40.2074 44.6446 40.4391 46.0117C40.6323 47.3397 40.9798 48.4334 41.2116 48.4334C41.4433 48.4334 41.4819 47.7694 41.3661 46.7929C41.2502 45.8555 40.9412 44.4884 40.7481 43.7463C40.5164 43.0041 39.8212 41.4027 39.2419 40.2309C38.6239 39.0592 37.7356 37.6921 37.2336 37.1843C36.7315 36.7156 36.1908 36.4422 36.0749 36.5984C35.9204 36.7937 36.3453 37.5359 37.0404 38.278Z" fill="#00A299"/>
<path d="M42.9123 48.5114C42.8736 48.7848 42.7964 48.6676 42.7964 48.238C42.7578 47.8083 42.7964 47.574 42.8736 47.7302C42.9509 47.8864 42.9509 48.238 42.9123 48.5114Z" fill="#336699" fill-opacity="0.6"/>
<path d="M24.5672 33.0448C24.4899 33.1619 24.1424 33.1619 23.8334 33.0838C23.4085 32.9276 23.4472 32.8495 23.9879 32.8495C24.4127 32.8104 24.6444 32.9276 24.5672 33.0448Z" fill="#336699" fill-opacity="0.3"/>
<path d="M29.3544 38.1211C29.0841 38.1992 28.6206 38.1992 28.3889 38.1211C28.1186 38.0039 28.3117 37.9648 28.8524 37.9648C29.3931 37.9648 29.5862 38.0039 29.3544 38.1211Z" fill="#336699" fill-opacity="0.7"/>
<path d="M29.3544 33.8262C29.0841 33.9043 28.6206 33.9043 28.3889 33.8262C28.1186 33.709 28.3117 33.6699 28.8524 33.6699C29.3931 33.6699 29.5862 33.709 29.3544 33.8262Z" fill="#336699" fill-opacity="0.8"/>
<path d="M22.9431 14.8414C22.8272 15.1538 22.75 14.9976 22.75 14.4508C22.75 13.904 22.8272 13.6696 22.9431 13.8649C23.0204 14.0602 23.0204 14.5289 22.9431 14.8414Z" fill="#336699" fill-opacity="0.3"/>
<path d="M19.6982 24.0605C19.4278 24.1387 18.9644 24.1387 18.7327 24.0605C18.4623 23.9434 18.6554 23.9043 19.1961 23.9043C19.7368 23.9043 19.9299 23.9434 19.6982 24.0605Z" fill="#336699" fill-opacity="0.6"/>
<path d="M19.0818 14.8414C18.9659 15.1538 18.8887 14.9976 18.8887 14.4508C18.8887 13.904 18.9659 13.6696 19.0818 13.8649C19.159 14.0602 19.159 14.5289 19.0818 14.8414Z" fill="#336699" fill-opacity="0.3"/>
</svg>
