<?xml version="1.0" encoding="utf-8"?>
<!-- Generator: Adobe Illustrator 15.1.0, SVG Export Plug-In . SVG Version: 6.00 Build 0)  -->
<!DOCTYPE svg PUBLIC "-//W3C//DTD SVG 1.1//EN" "http://www.w3.org/Graphics/SVG/1.1/DTD/svg11.dtd">
<svg version="1.1" id="katman_1" xmlns="http://www.w3.org/2000/svg" xmlns:xlink="http://www.w3.org/1999/xlink" x="0px" y="0px"
	 width="137.912px" height="100.5px" viewBox="0 0 137.912 100.5" enable-background="new 0 0 137.912 100.5" xml:space="preserve">
<g>
	<g>
		<g>
			<polygon fill="#99A3AA" points="63.863,76.951 62.074,76.951 62.074,71.744 60.595,71.744 60.595,70.274 65.342,70.274 
				65.342,71.744 63.863,71.744 			"/>
			<path fill="#99A3AA" d="M69.35,73.154c0.167-0.271,0.377-0.475,0.639-0.603c0.262-0.137,0.561-0.205,0.896-0.205h0.319v1.546
				c-0.108-0.059-0.218-0.095-0.319-0.111c-0.103-0.024-0.234-0.036-0.385-0.036c-0.432,0-0.731,0.121-0.902,0.367
				c-0.165,0.233-0.248,0.569-0.248,1.007v1.83h-1.661v-4.54h1.661V73.154z"/>
			<path fill="#99A3AA" d="M78.678,76.951H77.02v-0.505c-0.154,0.219-0.356,0.386-0.613,0.499c-0.254,0.105-0.525,0.158-0.819,0.158
				c-0.677,0-1.241-0.239-1.691-0.718c-0.448-0.479-0.675-1.048-0.675-1.711c0-0.665,0.217-1.234,0.655-1.706
				c0.44-0.473,1.001-0.711,1.692-0.711c0.283,0,0.555,0.052,0.811,0.151c0.254,0.096,0.467,0.243,0.641,0.443v-0.443h1.658V76.951z
				 M74.938,74.688c0,0.3,0.094,0.543,0.284,0.733c0.185,0.19,0.448,0.284,0.782,0.284c0.33,0,0.588-0.094,0.774-0.284
				c0.197-0.194,0.292-0.439,0.292-0.733c0-0.298-0.095-0.542-0.281-0.736c-0.188-0.194-0.449-0.294-0.787-0.294
				c-0.33,0-0.59,0.102-0.781,0.303C75.031,74.154,74.938,74.396,74.938,74.688z"/>
			<path fill="#99A3AA" d="M85.041,76.446c-0.15,0.219-0.354,0.386-0.61,0.499c-0.257,0.105-0.528,0.158-0.821,0.158
				c-0.674,0-1.237-0.239-1.688-0.718c-0.452-0.479-0.676-1.048-0.676-1.711c0-0.665,0.218-1.234,0.655-1.706
				c0.443-0.473,1.002-0.711,1.69-0.711c0.286,0,0.556,0.052,0.813,0.151c0.253,0.096,0.47,0.243,0.638,0.443v-3.249h1.662v7.346
				h-1.662V76.446z M82.961,74.688c0,0.3,0.094,0.543,0.281,0.733c0.191,0.19,0.453,0.284,0.787,0.284
				c0.328,0,0.588-0.094,0.775-0.284c0.197-0.194,0.293-0.439,0.293-0.733c0-0.298-0.096-0.542-0.285-0.736
				c-0.188-0.194-0.449-0.294-0.784-0.294c-0.328,0-0.589,0.102-0.786,0.303C83.055,74.154,82.961,74.396,82.961,74.688z"/>
			<path fill="#99A3AA" d="M94.291,74.95h-3.496c0,0.676,0.344,1.012,1.037,1.012c0.191,0,0.346-0.034,0.469-0.097
				c0.127-0.067,0.236-0.173,0.328-0.321h1.596c-0.125,0.509-0.41,0.896-0.855,1.158c-0.445,0.265-0.953,0.4-1.527,0.4
				c-0.801,0-1.457-0.212-1.961-0.638c-0.498-0.428-0.748-1.02-0.748-1.778c0-0.75,0.238-1.342,0.713-1.773
				c0.48-0.438,1.105-0.657,1.879-0.657c0.803,0,1.428,0.229,1.879,0.686c0.459,0.445,0.688,1.061,0.688,1.839V74.95z
				 M92.746,74.021c-0.041-0.218-0.152-0.394-0.33-0.522c-0.176-0.131-0.377-0.193-0.611-0.193c-0.254,0-0.473,0.06-0.646,0.185
				c-0.176,0.118-0.291,0.292-0.338,0.529L92.746,74.021L92.746,74.021z"/>
			<polygon fill="#99A3AA" points="103.549,71.744 103.549,72.853 105.512,72.853 105.512,74.322 103.549,74.322 103.549,76.951 
				101.76,76.951 101.76,70.274 105.713,70.274 105.713,71.744 			"/>
			<path fill="#99A3AA" d="M113.525,76.951h-1.66v-0.505c-0.152,0.219-0.355,0.386-0.611,0.499c-0.254,0.105-0.527,0.158-0.82,0.158
				c-0.676,0-1.238-0.239-1.689-0.718c-0.449-0.479-0.676-1.048-0.676-1.711c0-0.665,0.221-1.234,0.656-1.706
				c0.441-0.473,1.002-0.711,1.689-0.711c0.285,0,0.557,0.052,0.811,0.151c0.258,0.096,0.471,0.243,0.641,0.443v-0.443h1.66V76.951z
				 M109.785,74.688c0,0.3,0.094,0.543,0.283,0.733s0.449,0.284,0.787,0.284c0.326,0,0.582-0.094,0.773-0.284
				c0.193-0.194,0.291-0.439,0.291-0.733c0-0.298-0.094-0.542-0.283-0.736c-0.188-0.194-0.447-0.294-0.781-0.294
				c-0.33,0-0.592,0.102-0.787,0.303C109.879,74.154,109.785,74.396,109.785,74.688z"/>
			<path fill="#99A3AA" d="M118.027,76.951h-1.66v-4.54h1.66V76.951z M118.129,70.666c0,0.246-0.094,0.459-0.273,0.639
				c-0.184,0.175-0.404,0.263-0.658,0.263c-0.256,0-0.475-0.088-0.66-0.263c-0.178-0.18-0.271-0.393-0.271-0.639
				c0-0.249,0.094-0.46,0.271-0.641c0.186-0.176,0.404-0.265,0.66-0.265c0.254,0,0.475,0.09,0.658,0.265
				C118.035,70.206,118.129,70.417,118.129,70.666z"/>
			<path fill="#99A3AA" d="M122.52,73.154c0.164-0.271,0.375-0.475,0.641-0.603c0.258-0.137,0.559-0.205,0.895-0.205h0.318v1.546
				c-0.109-0.059-0.215-0.095-0.318-0.111c-0.104-0.024-0.23-0.036-0.385-0.036c-0.43,0-0.732,0.121-0.902,0.367
				c-0.168,0.233-0.248,0.569-0.248,1.007v1.83h-1.66v-4.54h1.66V73.154L122.52,73.154z"/>
			<path fill="#99A3AA" d="M129.824,73.58c-0.287-0.149-0.584-0.223-0.896-0.223c-0.127,0-0.244,0.025-0.355,0.079
				c-0.109,0.049-0.164,0.124-0.164,0.231c0,0.135,0.055,0.225,0.164,0.265c0.111,0.037,0.342,0.088,0.695,0.161
				c0.357,0.063,0.654,0.202,0.891,0.414c0.238,0.207,0.359,0.508,0.359,0.904c0,0.562-0.219,0.984-0.656,1.266
				c-0.434,0.283-0.949,0.426-1.553,0.426c-0.336,0-0.66-0.044-0.979-0.135c-0.314-0.086-0.619-0.219-0.91-0.388l0.602-1.127
				c0.182,0.127,0.395,0.234,0.637,0.33c0.254,0.089,0.479,0.134,0.68,0.134c0.123,0,0.236-0.028,0.348-0.089
				c0.115-0.059,0.172-0.145,0.172-0.258c0-0.15-0.104-0.264-0.316-0.333c-0.313-0.07-0.588-0.137-0.834-0.196
				c-0.244-0.066-0.457-0.182-0.646-0.353c-0.188-0.174-0.283-0.446-0.283-0.817c0-0.52,0.203-0.915,0.611-1.194
				c0.408-0.277,0.889-0.416,1.451-0.416c0.285,0,0.555,0.027,0.803,0.071c0.25,0.04,0.496,0.115,0.738,0.223L129.824,73.58z"/>
		</g>
		<g>
			<polygon fill="#99A3AA" points="62.441,61.377 62.441,62.488 64.41,62.488 64.41,63.964 62.441,63.964 62.441,66.603 
				60.644,66.603 60.644,59.898 64.611,59.898 64.611,61.377 			"/>
			<path fill="#99A3AA" d="M68.512,62.043v2.436c0,0.328,0.059,0.573,0.176,0.739c0.117,0.168,0.333,0.249,0.658,0.249
				c0.318,0,0.533-0.087,0.65-0.257c0.125-0.171,0.184-0.414,0.184-0.73v-2.435h1.667v2.746c0,0.71-0.223,1.22-0.67,1.522
				c-0.44,0.295-1.05,0.442-1.832,0.442c-0.771,0-1.38-0.151-1.832-0.45c-0.446-0.304-0.668-0.805-0.668-1.513v-2.748h1.667
				L68.512,62.043L68.512,62.043z"/>
			<path fill="#99A3AA" d="M79.352,66.603h-1.668v-0.504c-0.152,0.215-0.357,0.385-0.611,0.496
				c-0.256,0.104-0.533,0.159-0.824,0.159c-0.68,0-1.244-0.237-1.697-0.722c-0.451-0.48-0.676-1.052-0.676-1.715
				c0-0.669,0.218-1.24,0.657-1.714c0.44-0.477,1.005-0.714,1.696-0.714c0.285,0,0.559,0.052,0.814,0.151
				c0.256,0.097,0.47,0.243,0.643,0.446v-0.446h1.666V66.603L79.352,66.603z M75.596,64.326c0,0.305,0.095,0.552,0.283,0.74
				c0.188,0.19,0.451,0.285,0.787,0.285c0.331,0,0.592-0.095,0.781-0.285c0.195-0.196,0.292-0.442,0.292-0.74
				c0-0.294-0.095-0.538-0.283-0.734c-0.19-0.195-0.449-0.293-0.791-0.293c-0.329,0-0.591,0.098-0.788,0.303
				C75.689,63.793,75.596,64.039,75.596,64.326z"/>
			<path fill="#99A3AA" d="M83.428,62.79c0.168-0.273,0.379-0.475,0.645-0.606c0.26-0.133,0.563-0.202,0.896-0.202h0.324v1.555
				c-0.113-0.059-0.219-0.096-0.324-0.115c-0.102-0.024-0.23-0.035-0.385-0.035c-0.434,0-0.738,0.122-0.906,0.365
				c-0.166,0.235-0.25,0.573-0.25,1.012v1.842h-1.664v-4.56h1.664V62.79z"/>
			<path fill="#99A3AA" d="M90.602,63.526c-0.131-0.086-0.27-0.162-0.42-0.221c-0.152-0.064-0.303-0.099-0.443-0.099
				c-0.322,0-0.596,0.105-0.814,0.319c-0.217,0.215-0.33,0.479-0.33,0.794c0,0.331,0.111,0.604,0.33,0.808
				c0.219,0.21,0.502,0.31,0.842,0.31c0.324,0,0.602-0.1,0.836-0.31v1.369c-0.354,0.177-0.746,0.259-1.176,0.259
				c-0.699,0-1.303-0.227-1.805-0.684c-0.5-0.454-0.75-1.024-0.75-1.698c0-0.722,0.25-1.315,0.75-1.777
				c0.508-0.47,1.131-0.701,1.879-0.701c0.406,0,0.77,0.089,1.102,0.265V63.526z"/>
			<rect x="92.938" y="62.043" fill="#99A3AA" width="1.664" height="4.56"/>
			<rect x="97.002" y="59.225" fill="#99A3AA" width="1.672" height="7.38"/>
			<rect x="101.072" y="62.043" fill="#99A3AA" width="1.666" height="4.56"/>
			<polygon fill="#99A3AA" points="106.807,63.688 108.537,62.043 110.818,62.043 108.465,64.149 110.967,66.603 108.629,66.603 
				106.807,64.747 106.807,66.603 105.137,66.603 105.137,59.225 106.807,59.225 			"/>
			<path fill="#99A3AA" d="M118.908,65.438l-0.48,1.165h-1.904l2.66-6.704h1.959l2.602,6.704h-1.914l-0.447-1.165H118.908z
				 M120.16,61.972l-0.758,2.134h1.492L120.16,61.972z"/>
			<path fill="#99A3AA" d="M129.395,61.621c-0.168-0.133-0.359-0.237-0.564-0.317c-0.201-0.082-0.41-0.123-0.625-0.123
				c-0.189,0-0.365,0.053-0.529,0.152c-0.158,0.093-0.238,0.229-0.238,0.407c0,0.171,0.07,0.303,0.219,0.391
				c0.146,0.09,0.338,0.174,0.576,0.25l0.459,0.134c0.543,0.155,0.959,0.371,1.254,0.648c0.299,0.281,0.447,0.672,0.447,1.184
				c0,0.374-0.051,0.713-0.16,1.023c-0.104,0.309-0.289,0.565-0.553,0.781c-0.256,0.214-0.557,0.369-0.898,0.472
				c-0.34,0.11-0.697,0.16-1.063,0.16c-0.439,0-0.861-0.061-1.262-0.185c-0.408-0.131-0.793-0.324-1.166-0.579l0.77-1.404
				c0.25,0.214,0.51,0.384,0.768,0.508c0.264,0.122,0.539,0.188,0.828,0.188c0.238,0,0.441-0.059,0.611-0.172
				c0.172-0.12,0.254-0.289,0.254-0.507c0-0.215-0.096-0.372-0.293-0.471c-0.195-0.103-0.545-0.219-1.055-0.356
				c-0.5-0.145-0.895-0.33-1.182-0.569c-0.289-0.243-0.432-0.663-0.432-1.262c0-0.681,0.223-1.219,0.66-1.628
				c0.447-0.413,1.021-0.623,1.725-0.623c0.359,0,0.729,0.047,1.109,0.141c0.379,0.098,0.729,0.231,1.053,0.41L129.395,61.621z
				 M127.242,68.774l-0.715-0.436l1.189-1.405l0.91,0.569L127.242,68.774z"/>
		</g>
		<g>
			<polygon fill="#99A3AA" points="61.515,82.14 62.309,83.818 63.163,81.871 64.026,83.818 64.809,82.14 65.597,82.14 
				64.007,85.302 63.163,83.409 62.311,85.302 60.728,82.14 			"/>
			<polygon fill="#99A3AA" points="66.619,82.14 67.414,83.818 68.271,81.871 69.131,83.818 69.916,82.14 70.701,82.14 
				69.113,85.302 68.271,83.409 67.42,85.302 65.833,82.14 			"/>
			<polygon fill="#99A3AA" points="71.725,82.14 72.521,83.818 73.375,81.871 74.24,83.818 75.023,82.14 75.809,82.14 
				74.219,85.302 73.375,83.409 72.522,85.302 70.938,82.14 			"/>
			<path fill="#99A3AA" d="M76.564,84.742c0-0.111,0.043-0.209,0.127-0.292c0.082-0.084,0.186-0.124,0.306-0.124
				c0.114,0,0.218,0.04,0.303,0.124c0.085,0.083,0.13,0.179,0.13,0.296s-0.045,0.214-0.13,0.298
				c-0.081,0.079-0.185,0.122-0.303,0.122c-0.126,0-0.227-0.043-0.31-0.122C76.603,84.964,76.564,84.865,76.564,84.742z"/>
			<path fill="#99A3AA" d="M78.594,79.979h0.701v2.403c0.248-0.216,0.521-0.327,0.825-0.327c0.34,0,0.615,0.105,0.819,0.323
				c0.177,0.192,0.26,0.487,0.26,0.899v1.804h-0.695v-1.739c0-0.237-0.046-0.408-0.134-0.513c-0.085-0.105-0.221-0.16-0.413-0.16
				c-0.245,0-0.418,0.073-0.515,0.221c-0.099,0.148-0.147,0.405-0.147,0.768v1.421h-0.701V79.979z"/>
			<polygon fill="#99A3AA" points="82.961,79.979 82.961,83.092 83.949,82.14 84.887,82.14 83.57,83.373 84.984,85.081 
				84.076,85.081 83.074,83.84 82.961,83.948 82.961,85.081 82.261,85.081 82.261,79.979 			"/>
			<path fill="#99A3AA" d="M86.332,82.771v2.311h-0.701v-2.311h-0.252v-0.634h0.252V81c0-0.371,0.066-0.631,0.199-0.782
				c0.182-0.217,0.445-0.324,0.797-0.324c0.125,0,0.281,0.036,0.469,0.105v0.698l-0.068-0.039c-0.152-0.074-0.275-0.109-0.375-0.109
				c-0.125,0-0.209,0.042-0.252,0.128c-0.047,0.086-0.066,0.248-0.066,0.487v0.973h0.762v0.634L86.332,82.771L86.332,82.771z"/>
			<polygon fill="#99A3AA" points="88.395,82.771 88.395,85.081 87.691,85.081 87.691,82.771 87.396,82.771 87.396,82.14 
				87.691,82.14 87.691,81.063 88.395,81.063 88.395,82.14 88.938,82.14 88.938,82.771 			"/>
			<path fill="#99A3AA" d="M89.588,82.14h0.701v0.263c0.125-0.131,0.244-0.221,0.338-0.27c0.102-0.051,0.223-0.075,0.365-0.075
				c0.184,0,0.373,0.059,0.578,0.176l-0.322,0.623c-0.133-0.094-0.262-0.14-0.389-0.14c-0.381,0-0.57,0.281-0.57,0.841v1.525h-0.701
				V82.14z"/>
			<path fill="#99A3AA" d="M94.379,82.14h0.701v2.943h-0.701v-0.309c-0.287,0.261-0.598,0.395-0.932,0.395
				c-0.418,0-0.766-0.151-1.037-0.446C92.135,84.426,92,84.051,92,83.602c0-0.444,0.135-0.807,0.41-1.102
				c0.271-0.293,0.607-0.443,1.02-0.443c0.355,0,0.674,0.142,0.953,0.424V82.14H94.379z M92.715,83.6
				c0,0.285,0.078,0.514,0.236,0.69c0.16,0.178,0.359,0.271,0.602,0.271c0.262,0,0.471-0.091,0.631-0.262
				c0.16-0.178,0.236-0.407,0.236-0.682s-0.076-0.506-0.236-0.683c-0.16-0.178-0.367-0.263-0.623-0.263
				c-0.242,0-0.443,0.093-0.604,0.265C92.797,83.117,92.715,83.336,92.715,83.6z"/>
			<path fill="#99A3AA" d="M98.373,79.979h0.703v5.103h-0.703v-0.308c-0.275,0.261-0.586,0.394-0.936,0.394
				c-0.416,0-0.76-0.151-1.037-0.445c-0.271-0.298-0.406-0.672-0.406-1.123c0-0.437,0.135-0.802,0.406-1.098
				c0.275-0.296,0.611-0.446,1.02-0.446c0.361,0,0.676,0.141,0.955,0.424L98.373,79.979L98.373,79.979z M96.711,83.6
				c0,0.285,0.078,0.514,0.236,0.69c0.156,0.178,0.357,0.271,0.602,0.271c0.258,0,0.469-0.091,0.629-0.262
				c0.162-0.178,0.242-0.407,0.242-0.682s-0.08-0.506-0.242-0.683c-0.16-0.178-0.365-0.263-0.619-0.263
				c-0.242,0-0.443,0.093-0.604,0.265C96.791,83.117,96.711,83.336,96.711,83.6z"/>
			<path fill="#99A3AA" d="M102.895,83.771h-2.172c0.02,0.242,0.1,0.434,0.24,0.576c0.145,0.141,0.328,0.214,0.553,0.214
				c0.176,0,0.32-0.042,0.432-0.121c0.115-0.084,0.242-0.231,0.383-0.447l0.594,0.318c-0.092,0.152-0.186,0.282-0.291,0.39
				c-0.102,0.109-0.211,0.196-0.328,0.268c-0.115,0.067-0.242,0.117-0.373,0.147c-0.137,0.035-0.281,0.054-0.441,0.054
				c-0.453,0-0.816-0.14-1.09-0.426c-0.273-0.282-0.412-0.658-0.412-1.13c0-0.464,0.137-0.84,0.398-1.129
				c0.27-0.284,0.625-0.426,1.07-0.426c0.443,0,0.797,0.136,1.061,0.414c0.254,0.272,0.381,0.653,0.381,1.137L102.895,83.771z
				 M102.176,83.215c-0.1-0.36-0.332-0.545-0.707-0.545c-0.088,0-0.166,0.015-0.24,0.041c-0.074,0.022-0.143,0.06-0.205,0.106
				c-0.061,0.047-0.115,0.103-0.156,0.171c-0.045,0.065-0.08,0.142-0.102,0.227H102.176z"/>
			<path fill="#99A3AA" d="M104.557,82.771v2.311h-0.703v-2.311h-0.252v-0.634h0.252V81c0-0.371,0.068-0.631,0.199-0.782
				c0.182-0.217,0.449-0.324,0.799-0.324c0.123,0,0.283,0.036,0.475,0.105v0.698l-0.076-0.039c-0.15-0.074-0.277-0.109-0.371-0.109
				c-0.127,0-0.209,0.042-0.252,0.128s-0.066,0.248-0.066,0.487v0.973h0.768v0.634L104.557,82.771L104.557,82.771z"/>
			<path fill="#99A3AA" d="M108.131,82.14h0.705v2.943h-0.705v-0.309c-0.285,0.261-0.598,0.395-0.93,0.395
				c-0.42,0-0.762-0.151-1.037-0.446c-0.275-0.297-0.408-0.672-0.408-1.121c0-0.444,0.133-0.807,0.408-1.102
				c0.271-0.293,0.611-0.443,1.02-0.443c0.354,0,0.672,0.142,0.951,0.424V82.14H108.131z M106.469,83.6
				c0,0.285,0.078,0.514,0.232,0.69c0.162,0.178,0.361,0.271,0.605,0.271c0.258,0,0.467-0.091,0.627-0.262
				c0.164-0.178,0.244-0.407,0.244-0.682s-0.08-0.506-0.244-0.683c-0.16-0.178-0.365-0.263-0.623-0.263
				c-0.238,0-0.443,0.093-0.602,0.265C106.549,83.117,106.469,83.336,106.469,83.6z"/>
			<path fill="#99A3AA" d="M110.59,82.14v2.943h-0.697V82.14H110.59z M109.785,80.914c0-0.117,0.045-0.221,0.133-0.306
				c0.092-0.085,0.199-0.133,0.32-0.133c0.131,0,0.236,0.048,0.328,0.133c0.088,0.085,0.135,0.186,0.135,0.308
				c0,0.126-0.047,0.229-0.135,0.317c-0.09,0.086-0.195,0.13-0.322,0.13s-0.234-0.044-0.326-0.13
				C109.83,81.145,109.785,81.04,109.785,80.914z"/>
			<path fill="#99A3AA" d="M111.648,82.14h0.701v0.263c0.131-0.131,0.244-0.221,0.344-0.27c0.102-0.051,0.223-0.075,0.361-0.075
				c0.184,0,0.379,0.059,0.58,0.176l-0.32,0.623c-0.133-0.094-0.264-0.14-0.393-0.14c-0.379,0-0.572,0.281-0.572,0.841v1.525h-0.701
				V82.14z"/>
			<path fill="#99A3AA" d="M115.969,82.642l-0.578,0.298c-0.09-0.185-0.205-0.27-0.338-0.27c-0.068,0-0.121,0.018-0.168,0.06
				c-0.045,0.041-0.068,0.095-0.068,0.159c0,0.113,0.137,0.222,0.406,0.335c0.373,0.152,0.621,0.294,0.75,0.428
				c0.129,0.133,0.193,0.306,0.193,0.527c0,0.285-0.105,0.522-0.322,0.713c-0.213,0.182-0.463,0.274-0.762,0.274
				c-0.504,0-0.869-0.246-1.078-0.721l0.598-0.271c0.082,0.139,0.146,0.23,0.191,0.271c0.086,0.075,0.188,0.115,0.305,0.115
				c0.24,0,0.354-0.108,0.354-0.316c0-0.118-0.092-0.235-0.273-0.336c-0.07-0.036-0.141-0.07-0.211-0.102
				c-0.07-0.032-0.141-0.066-0.213-0.098c-0.207-0.099-0.348-0.195-0.43-0.291c-0.107-0.124-0.162-0.281-0.162-0.475
				c0-0.257,0.092-0.468,0.271-0.636c0.184-0.168,0.408-0.252,0.674-0.252C115.49,82.058,115.779,82.252,115.969,82.642z"/>
			<path fill="#99A3AA" d="M117.078,84.742c0-0.111,0.039-0.209,0.125-0.292c0.086-0.084,0.186-0.124,0.303-0.124
				c0.121,0,0.221,0.04,0.307,0.124c0.086,0.083,0.131,0.179,0.131,0.296s-0.045,0.214-0.131,0.298
				c-0.084,0.079-0.186,0.122-0.307,0.122s-0.225-0.043-0.305-0.122C117.115,84.964,117.078,84.865,117.078,84.742z"/>
			<path fill="#99A3AA" d="M121.469,82.266v0.904c-0.164-0.189-0.307-0.319-0.434-0.391c-0.123-0.073-0.27-0.109-0.439-0.109
				c-0.262,0-0.48,0.091-0.656,0.27c-0.174,0.18-0.26,0.403-0.26,0.673c0,0.277,0.082,0.501,0.25,0.683
				c0.17,0.175,0.389,0.266,0.652,0.266c0.168,0,0.318-0.039,0.443-0.108c0.127-0.067,0.273-0.204,0.443-0.397v0.9
				c-0.285,0.138-0.57,0.213-0.857,0.213c-0.471,0-0.861-0.151-1.176-0.445c-0.313-0.293-0.473-0.661-0.473-1.102
				s0.16-0.809,0.479-1.111c0.322-0.302,0.715-0.454,1.18-0.454C120.916,82.058,121.197,82.126,121.469,82.266z"/>
			<path fill="#99A3AA" d="M122.172,83.589c0-0.426,0.158-0.784,0.471-1.082c0.313-0.299,0.693-0.447,1.145-0.447
				c0.453,0,0.838,0.151,1.152,0.45c0.311,0.299,0.467,0.667,0.467,1.104c0,0.443-0.156,0.811-0.469,1.11
				c-0.314,0.293-0.703,0.444-1.162,0.444c-0.451,0-0.834-0.152-1.143-0.451C122.324,84.414,122.172,84.041,122.172,83.589z
				 M122.889,83.6c0,0.294,0.078,0.527,0.242,0.699c0.166,0.173,0.385,0.262,0.656,0.262c0.277,0,0.496-0.091,0.658-0.26
				c0.164-0.17,0.246-0.398,0.246-0.684c0-0.288-0.082-0.516-0.246-0.685c-0.166-0.176-0.385-0.261-0.658-0.261
				c-0.268,0-0.484,0.085-0.648,0.261C122.973,83.102,122.889,83.329,122.889,83.6z"/>
			<path fill="#99A3AA" d="M126.32,82.14h0.701v0.271c0.135-0.137,0.25-0.229,0.344-0.277c0.104-0.051,0.23-0.075,0.383-0.075
				c0.344,0,0.615,0.145,0.813,0.435c0.221-0.29,0.52-0.435,0.893-0.435c0.684,0,1.025,0.4,1.025,1.204v1.82h-0.701v-1.634
				c0-0.281-0.037-0.48-0.107-0.598c-0.074-0.121-0.193-0.181-0.359-0.181c-0.193,0-0.332,0.071-0.424,0.214
				c-0.086,0.142-0.127,0.365-0.127,0.68v1.521h-0.707v-1.626c0-0.523-0.154-0.786-0.465-0.786c-0.199,0-0.34,0.072-0.432,0.215
				c-0.094,0.14-0.137,0.368-0.137,0.677v1.521h-0.701L126.32,82.14L126.32,82.14z"/>
		</g>
	</g>
	<g>
		<path fill="#99A3AA" d="M22.726,33.159l5.883-4.041c0.781-0.537,1.612,0.6,0.829,1.136l-5.883,4.043
			C22.772,34.831,21.945,33.694,22.726,33.159z"/>
		<g>
			<path fill="#99A3AA" d="M12.816,33.168l12.429-8.502c0.781-0.536,1.611,0.603,0.829,1.137l-12.431,8.506
				C12.862,34.842,12.034,33.705,12.816,33.168z"/>
			<path fill="#99A3AA" d="M17.793,33.152l9.351-6.313c0.786-0.531,1.605,0.613,0.819,1.145l-9.349,6.314
				C17.828,34.829,17.009,33.687,17.793,33.152z"/>
			<path fill="#99A3AA" d="M27.617,33.162l5.768-4.075c0.429-0.461,1.176-2.129,0.188-3.967c-0.067-0.124-0.278-0.412-0.555-0.774
				l-0.635,0.48c-0.756,0.574-1.637-0.524-0.884-1.098l0.652-0.493c-0.576-0.721-1.109-1.373-1.142-1.403
				c-0.678-0.655,0.337-1.642,1.015-0.984c0.135,0.129,2.487,3.006,2.825,3.629c1.326,2.472,0.346,4.829-0.48,5.631l-2.986,2.118
				L28.46,34.29C27.688,34.837,26.844,33.709,27.617,33.162z"/>
		</g>
	</g>
	<g>
		<ellipse fill="#99A3AA" cx="35.51" cy="38.786" rx="1.149" ry="1.117"/>
		<g>
			<path fill="#99A3AA" d="M14.737,43.303v8.323c0.016,0.316,0.229,2.279,2.272,2.279c2.118,0,2.291-2.202,2.298-2.412v-8.142
				c0-1.444,2.234-1.444,2.234,0v8.199c0,0-0.01,0.297-0.091,0.723c-0.422,2.167-1.948,3.8-4.442,3.8
				c-2.663,0-4.462-2.036-4.508-4.43v-8.341C12.501,41.859,14.737,41.859,14.737,43.303z"/>
			<path fill="#99A3AA" d="M26.361,54.941V43.813h-1.779c-1.064,0-1.064-1.55,0-1.55h1.779v-1.619
				c-0.017-2.035,1.044-3.77,3.706-3.77l0.132,0.005c0,0,0.303,0.025,0.661,0.067c1.344,0.161,1.684,0.613,1.621,1.048
				c-0.074,0.479-0.668,0.926-1.708,0.761l-0.401-0.022l-0.447,0.022c-0.994,0.051-1.317,1.013-1.326,1.878v1.63h1.773
				c1.064,0,1.064,1.55,0,1.55h-1.773v11.129C28.597,56.386,26.361,56.386,26.361,54.941z"/>
			<path fill="#99A3AA" d="M36.612,43.376v11.599c0,1.448-2.234,1.448-2.234,0V43.376C34.378,41.932,36.612,41.932,36.612,43.376z"
				/>
		</g>
	</g>
	<g>
		<polygon fill="#99A3AA" points="12.623,58.872 14.179,58.872 15.144,62.097 16.104,58.872 17.688,58.872 17.688,63.337 
			16.774,63.337 16.774,59.559 15.573,63.337 14.709,63.337 13.506,59.559 13.506,63.337 12.623,63.337 		"/>
		<path fill="#99A3AA" d="M20.265,61.397c-0.006-0.448-0.184-0.677-0.544-0.677c-0.313,0-0.531,0.243-0.555,0.677H20.265z
			 M19.74,63.407c-0.938,0-1.497-0.58-1.497-1.594c0-1.071,0.571-1.664,1.542-1.664c0.908,0,1.432,0.575,1.432,1.616
			c0,0.071,0,0.138-0.006,0.204h-2.072c0.005,0.563,0.205,0.835,0.596,0.835c0.307,0,0.484-0.143,0.554-0.439h0.825
			C21.063,63.015,20.561,63.407,19.74,63.407z"/>
		<path fill="#99A3AA" d="M21.744,60.819c0-0.194-0.008-0.393-0.027-0.596h0.882l0.026,0.466c0.244-0.381,0.562-0.54,1.034-0.54
			c0.487,0,0.825,0.212,0.979,0.609c0.211-0.422,0.538-0.609,1.049-0.609c0.718,0,1.048,0.391,1.048,1.184v2.006h-0.926v-1.88
			c0-0.44-0.134-0.649-0.523-0.649c-0.353,0-0.591,0.235-0.591,0.61v1.919h-0.924v-1.88c0-0.44-0.136-0.649-0.521-0.649
			c-0.351,0-0.58,0.235-0.58,0.61v1.919h-0.926V60.819z"/>
		<path fill="#99A3AA" d="M29,62.799c0.404,0,0.652-0.353,0.652-1.013c0-0.656-0.25-1.016-0.652-1.016
			c-0.402,0-0.683,0.37-0.683,1.016C28.317,62.433,28.598,62.799,29,62.799z M27.409,62.827v-3.956h0.926v1.777
			c0.232-0.326,0.543-0.481,0.967-0.481c0.76,0,1.297,0.605,1.297,1.615c0,1.003-0.557,1.616-1.314,1.616
			c-0.408,0-0.734-0.175-0.962-0.508l-0.033,0.446h-0.915C27.396,63.183,27.409,63.01,27.409,62.827z"/>
		<path fill="#99A3AA" d="M33.003,61.397c-0.004-0.448-0.185-0.677-0.542-0.677c-0.313,0-0.531,0.243-0.556,0.677H33.003z
			 M32.479,63.407c-0.94,0-1.498-0.58-1.498-1.594c0-1.071,0.569-1.664,1.542-1.664c0.907,0,1.432,0.575,1.432,1.616
			c0,0.071,0,0.138-0.009,0.204h-2.068c0.005,0.563,0.205,0.835,0.594,0.835c0.31,0,0.487-0.143,0.557-0.439h0.825
			C33.805,63.015,33.298,63.407,32.479,63.407z"/>
		<path fill="#99A3AA" d="M34.469,61.19c0-0.351-0.014-0.678-0.039-0.967h0.857l0.03,0.558c0.167-0.384,0.526-0.581,1.055-0.581
			c0.008,0,0.02,0,0.026,0v0.818c-0.069-0.008-0.14-0.012-0.203-0.012c-0.493,0-0.781,0.247-0.781,0.647v1.683h-0.946V61.19z"/>
	</g>
	<g>
		<path fill="#99A3AA" d="M11.728,67.446v1.149h1.813v-1.149c0-0.164,0.039-0.289,0.115-0.372c0.075-0.081,0.176-0.123,0.301-0.123
			c0.126,0,0.229,0.042,0.305,0.123c0.078,0.078,0.117,0.206,0.117,0.372v3.168c0,0.164-0.039,0.288-0.117,0.371
			c-0.08,0.081-0.18,0.122-0.305,0.122c-0.127,0-0.228-0.041-0.303-0.126c-0.075-0.081-0.112-0.207-0.112-0.369v-1.352h-1.813v1.352
			c0,0.164-0.037,0.288-0.118,0.371c-0.078,0.082-0.18,0.122-0.305,0.122c-0.126,0-0.225-0.04-0.301-0.125
			c-0.075-0.082-0.113-0.21-0.113-0.37v-3.168c0-0.164,0.038-0.29,0.11-0.372c0.076-0.081,0.178-0.122,0.304-0.122
			c0.126,0,0.229,0.041,0.307,0.122C11.691,67.152,11.728,67.278,11.728,67.446z"/>
		<path fill="#99A3AA" d="M17.824,69.585c0,0.226-0.037,0.43-0.107,0.616c-0.073,0.188-0.177,0.351-0.31,0.487
			c-0.137,0.137-0.299,0.241-0.487,0.313c-0.188,0.068-0.4,0.105-0.635,0.105s-0.444-0.037-0.631-0.107
			c-0.187-0.073-0.348-0.179-0.484-0.315c-0.136-0.138-0.242-0.298-0.312-0.483c-0.07-0.187-0.105-0.391-0.105-0.615
			c0-0.226,0.035-0.433,0.107-0.623c0.07-0.188,0.173-0.35,0.308-0.483c0.134-0.135,0.296-0.235,0.485-0.307
			c0.191-0.071,0.399-0.108,0.631-0.108s0.444,0.037,0.635,0.11c0.188,0.072,0.353,0.175,0.487,0.312
			c0.137,0.138,0.238,0.295,0.31,0.484C17.789,69.155,17.824,69.362,17.824,69.585z M17.05,69.585c0-0.303-0.069-0.54-0.209-0.712
			c-0.137-0.172-0.324-0.254-0.556-0.254c-0.151,0-0.286,0.038-0.399,0.112c-0.114,0.075-0.202,0.189-0.266,0.337
			c-0.062,0.145-0.093,0.319-0.093,0.517c0,0.198,0.032,0.369,0.093,0.512c0.062,0.149,0.148,0.261,0.261,0.337
			c0.115,0.078,0.248,0.118,0.404,0.118c0.232,0,0.419-0.088,0.556-0.258C16.98,70.124,17.05,69.887,17.05,69.585z"/>
		<path fill="#99A3AA" d="M20.625,70.128c0,0.208-0.052,0.384-0.156,0.531c-0.104,0.148-0.259,0.258-0.461,0.331
			c-0.201,0.078-0.447,0.115-0.738,0.115c-0.276,0-0.513-0.04-0.71-0.122c-0.197-0.085-0.345-0.186-0.439-0.31
			c-0.095-0.124-0.14-0.248-0.14-0.372c0-0.081,0.03-0.152,0.089-0.209c0.061-0.06,0.138-0.088,0.23-0.088
			c0.08,0,0.143,0.019,0.187,0.056c0.043,0.04,0.084,0.093,0.123,0.164c0.08,0.133,0.173,0.232,0.284,0.297
			c0.111,0.065,0.261,0.098,0.451,0.098c0.155,0,0.282-0.032,0.38-0.099c0.098-0.065,0.148-0.145,0.148-0.227
			c0-0.132-0.051-0.231-0.155-0.288c-0.1-0.061-0.27-0.12-0.505-0.176c-0.267-0.063-0.482-0.132-0.65-0.203
			c-0.167-0.067-0.3-0.16-0.399-0.278c-0.099-0.113-0.148-0.253-0.148-0.424c0-0.148,0.046-0.293,0.137-0.425
			c0.094-0.132,0.228-0.24,0.409-0.32c0.181-0.077,0.396-0.118,0.652-0.118c0.198,0,0.377,0.021,0.537,0.059
			c0.159,0.041,0.292,0.097,0.398,0.163c0.107,0.071,0.188,0.143,0.246,0.225c0.053,0.082,0.081,0.164,0.081,0.239
			c0,0.089-0.029,0.155-0.09,0.214c-0.058,0.059-0.144,0.081-0.251,0.081c-0.079,0-0.146-0.02-0.203-0.063
			c-0.055-0.04-0.12-0.109-0.191-0.197c-0.059-0.072-0.126-0.133-0.206-0.175c-0.079-0.043-0.187-0.065-0.321-0.065
			c-0.139,0-0.256,0.027-0.348,0.085c-0.092,0.059-0.138,0.13-0.138,0.215c0,0.08,0.034,0.142,0.101,0.194
			c0.069,0.052,0.16,0.094,0.273,0.125c0.117,0.031,0.274,0.07,0.476,0.12c0.238,0.057,0.434,0.124,0.585,0.205
			c0.154,0.074,0.267,0.17,0.345,0.277C20.586,69.868,20.625,69.989,20.625,70.128z"/>
		<path fill="#99A3AA" d="M21.029,68.13h0.085v-0.448c0-0.123,0.004-0.215,0.01-0.284c0.006-0.069,0.025-0.13,0.054-0.178
			c0.03-0.05,0.075-0.092,0.132-0.125c0.056-0.032,0.119-0.049,0.189-0.049c0.097,0,0.187,0.034,0.266,0.104
			c0.052,0.052,0.085,0.109,0.099,0.177c0.014,0.069,0.021,0.167,0.021,0.291v0.512h0.283c0.109,0,0.192,0.025,0.251,0.074
			c0.057,0.052,0.084,0.113,0.084,0.194c0,0.099-0.041,0.169-0.123,0.214c-0.08,0.038-0.198,0.058-0.351,0.058h-0.143v1.376
			c0,0.117,0.004,0.208,0.012,0.272c0.01,0.058,0.03,0.112,0.068,0.153c0.035,0.039,0.097,0.059,0.18,0.059
			c0.044,0,0.105-0.008,0.184-0.022c0.078-0.017,0.136-0.023,0.181-0.023c0.061,0,0.118,0.025,0.167,0.074
			c0.048,0.05,0.074,0.107,0.074,0.178c0,0.12-0.069,0.214-0.204,0.275c-0.133,0.066-0.331,0.097-0.583,0.097
			c-0.242,0-0.425-0.038-0.55-0.119c-0.123-0.077-0.204-0.186-0.241-0.324c-0.04-0.139-0.06-0.327-0.06-0.558v-1.436h-0.101
			c-0.112,0-0.196-0.025-0.253-0.078c-0.059-0.05-0.089-0.117-0.089-0.193c0-0.083,0.03-0.143,0.093-0.196
			C20.824,68.157,20.915,68.13,21.029,68.13z"/>
		<path fill="#99A3AA" d="M26.789,69.585c0,0.226-0.035,0.43-0.105,0.616c-0.073,0.188-0.176,0.351-0.311,0.487
			c-0.137,0.137-0.299,0.241-0.487,0.313c-0.189,0.068-0.401,0.105-0.635,0.105s-0.445-0.037-0.631-0.107
			c-0.185-0.073-0.347-0.179-0.484-0.315c-0.136-0.138-0.239-0.298-0.311-0.483c-0.069-0.187-0.105-0.391-0.105-0.615
			c0-0.226,0.036-0.433,0.107-0.623c0.073-0.188,0.176-0.35,0.309-0.483c0.134-0.135,0.295-0.235,0.484-0.307
			c0.19-0.071,0.401-0.108,0.631-0.108c0.232,0,0.445,0.037,0.635,0.11c0.189,0.072,0.353,0.175,0.488,0.312
			c0.134,0.138,0.239,0.295,0.309,0.484C26.754,69.155,26.789,69.362,26.789,69.585z M26.016,69.585c0-0.303-0.071-0.54-0.207-0.712
			c-0.137-0.172-0.326-0.254-0.558-0.254c-0.152,0-0.284,0.038-0.398,0.112c-0.113,0.075-0.204,0.189-0.266,0.337
			c-0.063,0.145-0.094,0.319-0.094,0.517c0,0.198,0.03,0.369,0.091,0.512c0.062,0.149,0.151,0.261,0.264,0.337
			c0.115,0.078,0.248,0.118,0.403,0.118c0.232,0,0.421-0.088,0.558-0.258C25.946,70.124,26.016,69.887,26.016,69.585z"/>
		<path fill="#99A3AA" d="M27.044,68.13h0.184v-0.223c0-0.233,0.033-0.421,0.091-0.562c0.063-0.137,0.167-0.239,0.312-0.299
			c0.146-0.064,0.347-0.096,0.601-0.096c0.45,0,0.675,0.108,0.675,0.32c0,0.071-0.023,0.128-0.072,0.179
			c-0.047,0.049-0.1,0.071-0.165,0.071c-0.029,0-0.083-0.006-0.155-0.017c-0.074-0.013-0.135-0.017-0.188-0.017
			c-0.137,0-0.228,0.04-0.268,0.119c-0.04,0.078-0.06,0.195-0.06,0.342v0.177h0.191c0.292,0,0.439,0.085,0.439,0.258
			c0,0.122-0.039,0.2-0.117,0.233c-0.079,0.034-0.187,0.05-0.324,0.05h-0.191v1.979c0,0.147-0.038,0.259-0.108,0.338
			c-0.071,0.079-0.167,0.117-0.28,0.117c-0.109,0-0.201-0.038-0.274-0.117s-0.109-0.19-0.109-0.338v-1.979h-0.211
			c-0.116,0-0.203-0.026-0.267-0.075c-0.061-0.053-0.09-0.117-0.09-0.197C26.661,68.219,26.787,68.13,27.044,68.13z"/>
		<path fill="#99A3AA" d="M30.591,68.13h0.084v-0.448c0-0.123,0.003-0.215,0.011-0.284c0.005-0.069,0.025-0.13,0.055-0.178
			c0.03-0.05,0.074-0.092,0.13-0.125c0.054-0.032,0.119-0.049,0.187-0.049c0.1,0,0.188,0.034,0.268,0.104
			c0.052,0.052,0.086,0.109,0.098,0.177c0.017,0.069,0.022,0.167,0.022,0.291v0.512h0.283c0.108,0,0.191,0.025,0.25,0.074
			c0.057,0.052,0.085,0.113,0.085,0.194c0,0.099-0.041,0.169-0.124,0.214c-0.079,0.038-0.198,0.058-0.351,0.058h-0.144v1.376
			c0,0.117,0.004,0.208,0.013,0.272c0.007,0.058,0.032,0.112,0.068,0.153c0.037,0.039,0.097,0.059,0.18,0.059
			c0.043,0,0.104-0.008,0.184-0.022c0.077-0.017,0.138-0.023,0.18-0.023c0.063,0,0.12,0.025,0.169,0.074
			c0.05,0.05,0.075,0.107,0.075,0.178c0,0.12-0.067,0.214-0.203,0.275c-0.137,0.066-0.331,0.097-0.584,0.097
			c-0.242,0-0.425-0.038-0.548-0.119c-0.125-0.077-0.205-0.186-0.245-0.324c-0.039-0.139-0.058-0.327-0.058-0.558v-1.436h-0.1
			c-0.112,0-0.197-0.025-0.255-0.078c-0.059-0.05-0.085-0.117-0.085-0.193c0-0.083,0.028-0.143,0.09-0.196
			C30.385,68.157,30.474,68.13,30.591,68.13z"/>
		<path fill="#99A3AA" d="M33.062,67.408v1.108c0.097-0.107,0.193-0.199,0.285-0.259c0.093-0.063,0.198-0.11,0.311-0.141
			c0.114-0.035,0.234-0.051,0.365-0.051c0.195,0,0.369,0.04,0.521,0.118c0.151,0.086,0.27,0.201,0.355,0.353
			c0.057,0.089,0.093,0.192,0.11,0.302c0.02,0.105,0.029,0.237,0.029,0.379v1.435c0,0.149-0.034,0.263-0.104,0.34
			c-0.074,0.076-0.165,0.115-0.282,0.115c-0.253,0-0.381-0.152-0.381-0.455v-1.265c0-0.24-0.037-0.425-0.112-0.551
			c-0.071-0.13-0.211-0.192-0.417-0.192c-0.138,0-0.262,0.037-0.372,0.111c-0.11,0.075-0.191,0.183-0.246,0.313
			c-0.041,0.107-0.062,0.307-0.062,0.596v0.988c0,0.147-0.035,0.259-0.103,0.338c-0.07,0.078-0.167,0.117-0.286,0.117
			c-0.257,0-0.383-0.152-0.383-0.455v-3.244c0-0.153,0.032-0.267,0.098-0.342c0.07-0.075,0.161-0.115,0.285-0.115
			c0.12,0,0.216,0.04,0.286,0.115C33.028,67.146,33.062,67.258,33.062,67.408z"/>
		<path fill="#99A3AA" d="M37.666,69.767h-1.509c0.002,0.173,0.037,0.323,0.104,0.451c0.069,0.131,0.162,0.228,0.276,0.294
			c0.113,0.063,0.239,0.099,0.375,0.099c0.093,0,0.178-0.011,0.253-0.035c0.077-0.019,0.15-0.056,0.222-0.097
			c0.071-0.045,0.136-0.095,0.197-0.145c0.061-0.051,0.139-0.118,0.234-0.209c0.041-0.033,0.096-0.05,0.168-0.05
			c0.079,0,0.144,0.02,0.193,0.062c0.049,0.042,0.075,0.103,0.075,0.178c0,0.067-0.027,0.147-0.084,0.239
			c-0.052,0.089-0.135,0.175-0.245,0.259c-0.109,0.083-0.247,0.154-0.416,0.207c-0.164,0.053-0.356,0.083-0.573,0.083
			c-0.497,0-0.88-0.136-1.158-0.41c-0.273-0.274-0.412-0.646-0.412-1.116c0-0.219,0.037-0.424,0.102-0.616
			c0.069-0.188,0.168-0.349,0.298-0.487c0.13-0.134,0.29-0.235,0.481-0.309c0.189-0.071,0.4-0.105,0.632-0.105
			c0.303,0,0.56,0.059,0.776,0.185c0.214,0.124,0.375,0.282,0.483,0.477c0.107,0.194,0.162,0.396,0.162,0.599
			c0,0.188-0.054,0.31-0.167,0.367C38.023,69.74,37.866,69.767,37.666,69.767z M36.157,69.346h1.399
			c-0.02-0.255-0.09-0.449-0.214-0.576c-0.124-0.125-0.287-0.192-0.487-0.192c-0.193,0-0.35,0.067-0.475,0.197
			C36.258,68.902,36.182,69.092,36.157,69.346z"/>
		<path fill="#99A3AA" d="M2.52,73.795h1.882c0.181,0,0.313,0.028,0.393,0.083c0.08,0.053,0.121,0.143,0.121,0.271
			c0,0.077-0.047,0.177-0.144,0.304c-0.094,0.127-0.203,0.267-0.324,0.42c-0.122,0.149-0.246,0.34-0.375,0.566
			c-0.128,0.226-0.248,0.504-0.354,0.834c-0.044,0.141-0.078,0.262-0.096,0.358c-0.018,0.091-0.04,0.216-0.062,0.367
			C3.539,77.153,3.52,77.269,3.5,77.347c-0.038,0.187-0.094,0.316-0.167,0.39c-0.073,0.071-0.169,0.107-0.289,0.107
			c-0.117,0-0.21-0.038-0.278-0.116c-0.071-0.078-0.104-0.192-0.104-0.344c0-0.117,0.025-0.276,0.078-0.478
			c0.048-0.199,0.132-0.443,0.247-0.723c0.115-0.278,0.26-0.566,0.433-0.864c0.171-0.292,0.376-0.587,0.613-0.879H2.52
			c-0.156,0-0.275-0.027-0.353-0.086c-0.078-0.055-0.119-0.14-0.119-0.259c0-0.128,0.042-0.209,0.126-0.245
			C2.256,73.815,2.372,73.795,2.52,73.795z"/>
		<path fill="#99A3AA" d="M7.446,74.434h-1.34l-0.162,0.886c0.268-0.137,0.515-0.206,0.741-0.206c0.179,0,0.35,0.032,0.506,0.097
			c0.156,0.065,0.295,0.158,0.415,0.275c0.117,0.115,0.21,0.253,0.279,0.41c0.068,0.158,0.1,0.332,0.1,0.515
			c0,0.262-0.06,0.503-0.182,0.722c-0.124,0.215-0.299,0.389-0.531,0.518c-0.232,0.129-0.496,0.192-0.797,0.192
			c-0.336,0-0.611-0.061-0.82-0.179c-0.212-0.123-0.359-0.26-0.447-0.417c-0.088-0.155-0.131-0.293-0.131-0.41
			c0-0.072,0.029-0.138,0.091-0.204c0.061-0.062,0.136-0.098,0.231-0.098c0.159,0,0.274,0.091,0.352,0.271
			c0.076,0.16,0.178,0.284,0.305,0.376c0.129,0.091,0.272,0.135,0.43,0.135c0.144,0,0.271-0.034,0.382-0.107
			c0.109-0.074,0.192-0.172,0.252-0.303c0.059-0.13,0.087-0.273,0.087-0.435c0-0.176-0.032-0.326-0.094-0.448
			c-0.065-0.127-0.151-0.218-0.257-0.281c-0.108-0.059-0.228-0.092-0.359-0.092c-0.163,0-0.278,0.021-0.347,0.059
			c-0.07,0.04-0.17,0.106-0.301,0.205c-0.133,0.094-0.238,0.141-0.324,0.141c-0.091,0-0.174-0.029-0.246-0.097
			c-0.071-0.064-0.107-0.138-0.107-0.219c0-0.012,0.01-0.071,0.032-0.188l0.236-1.312c0.027-0.157,0.077-0.271,0.147-0.342
			c0.073-0.067,0.19-0.106,0.351-0.106h1.492c0.292,0,0.441,0.106,0.441,0.327c0,0.094-0.037,0.174-0.109,0.232
			C7.691,74.402,7.586,74.434,7.446,74.434z"/>
		<path fill="#99A3AA" d="M8.22,73.838h0.059v-0.311c0-0.085,0-0.148,0.007-0.195c0.003-0.048,0.017-0.088,0.037-0.122
			c0.021-0.035,0.051-0.063,0.09-0.085c0.04-0.023,0.082-0.033,0.132-0.033c0.066,0,0.126,0.022,0.181,0.071
			c0.036,0.032,0.06,0.074,0.069,0.121c0.008,0.048,0.014,0.113,0.014,0.201v0.353h0.195c0.078,0,0.134,0.015,0.172,0.051
			c0.04,0.035,0.06,0.079,0.06,0.134c0,0.069-0.028,0.117-0.086,0.145c-0.054,0.025-0.135,0.044-0.24,0.044H8.809v0.948
			c0,0.081,0.003,0.14,0.009,0.185c0.004,0.045,0.021,0.079,0.046,0.104c0.025,0.029,0.065,0.044,0.126,0.044
			c0.029,0,0.072-0.008,0.124-0.018c0.053-0.01,0.097-0.02,0.125-0.02c0.043,0,0.081,0.02,0.115,0.053
			c0.035,0.036,0.053,0.076,0.053,0.125c0,0.082-0.046,0.145-0.14,0.19c-0.093,0.043-0.227,0.065-0.403,0.065
			c-0.166,0-0.292-0.025-0.377-0.083c-0.086-0.053-0.142-0.127-0.168-0.222c-0.028-0.098-0.04-0.224-0.04-0.385v-0.989H8.208
			c-0.076,0-0.135-0.019-0.176-0.054c-0.039-0.036-0.059-0.078-0.059-0.137c0-0.055,0.021-0.097,0.063-0.133
			C8.08,73.853,8.14,73.838,8.22,73.838z"/>
		<path fill="#99A3AA" d="M9.922,73.337v0.769c0.069-0.077,0.134-0.138,0.199-0.182c0.064-0.042,0.134-0.075,0.213-0.097
			c0.077-0.024,0.162-0.033,0.251-0.033c0.134,0,0.254,0.026,0.359,0.081c0.104,0.058,0.186,0.137,0.247,0.242
			c0.038,0.063,0.063,0.13,0.076,0.21c0.014,0.077,0.02,0.164,0.02,0.262v0.989c0,0.103-0.025,0.18-0.074,0.232
			c-0.049,0.055-0.112,0.079-0.192,0.079c-0.174,0-0.264-0.103-0.264-0.312v-0.873c0-0.164-0.025-0.291-0.076-0.378
			c-0.05-0.089-0.145-0.135-0.288-0.135c-0.095,0-0.179,0.023-0.257,0.078c-0.076,0.053-0.133,0.123-0.17,0.215
			c-0.029,0.075-0.043,0.213-0.043,0.408v0.683c0,0.098-0.023,0.18-0.071,0.232c-0.046,0.055-0.113,0.08-0.196,0.08
			c-0.176,0-0.265-0.104-0.265-0.313v-2.239c0-0.104,0.025-0.18,0.07-0.235c0.044-0.053,0.11-0.078,0.194-0.078
			c0.083,0,0.15,0.025,0.196,0.078C9.898,73.158,9.922,73.233,9.922,73.337z"/>
		<path fill="#99A3AA" d="M12.952,76.114v-1.934c0-0.165,0.039-0.286,0.115-0.37c0.076-0.082,0.176-0.121,0.299-0.121
			c0.131,0,0.235,0.039,0.311,0.121c0.078,0.084,0.115,0.205,0.115,0.37v1.978c0,0.223,0.025,0.412,0.077,0.563
			c0.052,0.154,0.144,0.269,0.277,0.351c0.133,0.084,0.317,0.126,0.554,0.126c0.326,0,0.557-0.086,0.695-0.252
			c0.134-0.17,0.203-0.428,0.203-0.77v-1.995c0-0.165,0.037-0.29,0.112-0.37c0.076-0.082,0.176-0.121,0.301-0.121
			c0.127,0,0.23,0.039,0.31,0.121c0.077,0.08,0.116,0.205,0.116,0.37v1.934c0,0.313-0.031,0.575-0.095,0.787
			c-0.063,0.21-0.185,0.395-0.357,0.553c-0.15,0.136-0.326,0.233-0.526,0.298c-0.198,0.061-0.434,0.092-0.701,0.092
			c-0.319,0-0.593-0.035-0.821-0.099c-0.232-0.069-0.418-0.174-0.562-0.311c-0.145-0.141-0.252-0.318-0.32-0.536
			C12.985,76.678,12.952,76.417,12.952,76.114z"/>
		<path fill="#99A3AA" d="M19.525,74.384h-1.652v1.026h1.38c0.129,0,0.225,0.029,0.288,0.09c0.063,0.053,0.094,0.128,0.094,0.221
			c0,0.094-0.031,0.169-0.095,0.222c-0.065,0.055-0.159,0.082-0.287,0.082h-1.38v1.322c0,0.168-0.04,0.294-0.117,0.376
			c-0.078,0.08-0.179,0.121-0.302,0.121c-0.123,0-0.225-0.041-0.304-0.124c-0.076-0.081-0.117-0.207-0.117-0.373v-3.09
			c0-0.119,0.018-0.215,0.053-0.289c0.036-0.073,0.093-0.128,0.169-0.161c0.075-0.034,0.174-0.05,0.292-0.05h1.977
			c0.135,0,0.233,0.026,0.298,0.085c0.066,0.059,0.097,0.133,0.097,0.226c0,0.096-0.03,0.174-0.097,0.229
			C19.758,74.354,19.66,74.384,19.525,74.384z"/>
		<path fill="#99A3AA" d="M20.291,77.347v-3.166c0-0.165,0.036-0.286,0.114-0.37c0.078-0.082,0.179-0.121,0.301-0.121
			c0.125,0,0.229,0.039,0.307,0.121c0.078,0.08,0.117,0.205,0.117,0.37v3.166c0,0.166-0.039,0.293-0.117,0.373
			c-0.078,0.083-0.182,0.124-0.307,0.124c-0.121,0-0.219-0.041-0.298-0.126C20.33,77.636,20.291,77.513,20.291,77.347z"/>
		<path fill="#99A3AA" d="M26.462,76.505c0,0.129-0.033,0.269-0.097,0.416c-0.064,0.148-0.168,0.293-0.306,0.438
			c-0.141,0.143-0.316,0.258-0.535,0.348c-0.216,0.09-0.469,0.136-0.757,0.136c-0.219,0-0.415-0.021-0.595-0.06
			c-0.179-0.04-0.343-0.102-0.487-0.188c-0.146-0.086-0.281-0.197-0.402-0.336c-0.109-0.125-0.202-0.264-0.28-0.423
			c-0.077-0.155-0.136-0.322-0.175-0.498c-0.039-0.178-0.059-0.367-0.059-0.564c0-0.325,0.05-0.614,0.146-0.872
			c0.096-0.253,0.235-0.473,0.417-0.655c0.18-0.182,0.392-0.321,0.636-0.413c0.243-0.097,0.5-0.141,0.776-0.141
			c0.336,0,0.635,0.063,0.895,0.193c0.262,0.13,0.463,0.292,0.602,0.48c0.139,0.19,0.211,0.373,0.211,0.541
			c0,0.096-0.035,0.179-0.104,0.249c-0.066,0.071-0.148,0.106-0.245,0.106c-0.108,0-0.189-0.024-0.242-0.075
			c-0.054-0.05-0.114-0.134-0.179-0.253c-0.109-0.199-0.238-0.347-0.387-0.447c-0.147-0.101-0.329-0.15-0.545-0.15
			c-0.344,0-0.619,0.13-0.825,0.381c-0.203,0.254-0.305,0.615-0.305,1.081c0,0.314,0.046,0.573,0.136,0.781
			c0.091,0.21,0.217,0.364,0.382,0.465c0.168,0.102,0.361,0.153,0.582,0.153c0.242,0,0.447-0.059,0.613-0.176
			c0.167-0.114,0.292-0.285,0.376-0.51c0.037-0.104,0.082-0.189,0.134-0.259c0.051-0.064,0.136-0.099,0.255-0.099
			c0.097,0,0.183,0.034,0.256,0.102C26.426,76.323,26.462,76.406,26.462,76.505z"/>
		<path fill="#99A3AA" d="M29.761,76.323c0,0.222-0.037,0.427-0.108,0.618c-0.07,0.188-0.175,0.347-0.311,0.482
			c-0.136,0.137-0.297,0.239-0.486,0.313c-0.188,0.071-0.4,0.107-0.635,0.107c-0.233,0-0.444-0.036-0.63-0.109
			s-0.349-0.178-0.484-0.314c-0.136-0.137-0.24-0.296-0.311-0.482c-0.071-0.185-0.106-0.387-0.106-0.614
			c0-0.226,0.036-0.436,0.106-0.622c0.071-0.188,0.176-0.349,0.309-0.484c0.134-0.136,0.296-0.235,0.486-0.307
			c0.189-0.073,0.399-0.109,0.63-0.109c0.231,0,0.445,0.036,0.635,0.111c0.19,0.071,0.354,0.175,0.487,0.313
			c0.136,0.135,0.239,0.294,0.309,0.48C29.724,75.891,29.761,76.1,29.761,76.323z M28.985,76.323c0-0.308-0.066-0.546-0.207-0.714
			c-0.137-0.171-0.325-0.254-0.557-0.254c-0.151,0-0.283,0.037-0.398,0.114c-0.113,0.075-0.202,0.187-0.266,0.334
			c-0.063,0.147-0.094,0.321-0.094,0.52c0,0.194,0.032,0.366,0.092,0.513c0.062,0.144,0.151,0.257,0.265,0.334
			c0.112,0.076,0.249,0.118,0.401,0.118c0.232,0,0.42-0.088,0.557-0.257C28.918,76.857,28.985,76.623,28.985,76.323z"/>
		<path fill="#99A3AA" d="M30.778,75.213v0.093c0.136-0.173,0.285-0.301,0.444-0.381c0.162-0.083,0.348-0.124,0.555-0.124
			c0.205,0,0.387,0.045,0.545,0.13c0.162,0.085,0.279,0.21,0.36,0.363c0.05,0.095,0.083,0.189,0.099,0.296
			c0.013,0.106,0.022,0.241,0.022,0.407v1.392c0,0.147-0.036,0.261-0.107,0.339c-0.071,0.078-0.162,0.114-0.276,0.114
			c-0.113,0-0.207-0.041-0.28-0.118c-0.071-0.076-0.107-0.19-0.107-0.335V76.14c0-0.247-0.035-0.436-0.105-0.564
			c-0.072-0.132-0.212-0.196-0.422-0.196c-0.138,0-0.264,0.04-0.375,0.121c-0.113,0.079-0.196,0.187-0.251,0.327
			c-0.037,0.11-0.056,0.317-0.056,0.625v0.938c0,0.149-0.036,0.264-0.108,0.339c-0.073,0.078-0.167,0.114-0.283,0.114
			c-0.111,0-0.2-0.041-0.272-0.118c-0.073-0.076-0.107-0.19-0.107-0.335v-2.164c0-0.142,0.032-0.249,0.098-0.322
			c0.061-0.067,0.15-0.102,0.262-0.102c0.066,0,0.127,0.018,0.182,0.046c0.055,0.033,0.097,0.08,0.132,0.139
			C30.762,75.051,30.778,75.126,30.778,75.213z"/>
		<path fill="#99A3AA" d="M36.119,75.349v2.175c0,0.249-0.026,0.461-0.08,0.644c-0.056,0.176-0.143,0.325-0.264,0.442
			c-0.121,0.114-0.277,0.203-0.473,0.259c-0.195,0.057-0.438,0.084-0.727,0.084c-0.266,0-0.502-0.034-0.713-0.107
			c-0.207-0.071-0.37-0.164-0.481-0.279c-0.116-0.111-0.172-0.232-0.172-0.351c0-0.096,0.033-0.17,0.097-0.227
			c0.063-0.057,0.142-0.084,0.231-0.084c0.113,0,0.212,0.049,0.295,0.144c0.041,0.048,0.085,0.098,0.129,0.148
			c0.045,0.053,0.093,0.095,0.148,0.132c0.052,0.034,0.118,0.061,0.193,0.08c0.075,0.018,0.162,0.023,0.259,0.023
			c0.2,0,0.354-0.027,0.464-0.081c0.11-0.056,0.189-0.131,0.234-0.226c0.042-0.099,0.069-0.2,0.078-0.314
			c0.006-0.105,0.011-0.287,0.018-0.529c-0.121,0.16-0.258,0.285-0.412,0.368c-0.156,0.083-0.341,0.125-0.557,0.125
			c-0.258,0-0.483-0.063-0.676-0.192c-0.194-0.126-0.341-0.307-0.446-0.533c-0.101-0.235-0.155-0.497-0.155-0.799
			c0-0.224,0.034-0.428,0.097-0.609c0.061-0.18,0.152-0.331,0.27-0.455c0.117-0.124,0.252-0.217,0.403-0.281
			c0.152-0.063,0.319-0.096,0.503-0.096c0.218,0,0.409,0.038,0.568,0.12c0.157,0.084,0.308,0.213,0.445,0.381v-0.098
			c0-0.132,0.033-0.227,0.099-0.3c0.064-0.075,0.15-0.109,0.254-0.109c0.146,0,0.248,0.046,0.294,0.139
			C36.093,75.036,36.119,75.171,36.119,75.349z M33.884,76.297c0,0.302,0.069,0.533,0.206,0.689
			c0.135,0.156,0.312,0.232,0.528,0.232c0.128,0,0.249-0.032,0.363-0.101c0.113-0.067,0.207-0.167,0.278-0.299
			c0.072-0.136,0.107-0.3,0.107-0.49c0-0.305-0.069-0.542-0.208-0.712c-0.136-0.172-0.318-0.254-0.545-0.254
			c-0.221,0-0.398,0.078-0.53,0.241C33.953,75.767,33.884,75.999,33.884,76.297z"/>
		<path fill="#99A3AA" d="M37.296,76.766v0.625c0,0.149-0.035,0.264-0.107,0.339c-0.075,0.078-0.168,0.114-0.281,0.114
			c-0.111,0-0.202-0.036-0.274-0.114c-0.07-0.078-0.105-0.191-0.105-0.339v-2.084c0-0.336,0.124-0.505,0.375-0.505
			c0.125,0,0.221,0.041,0.276,0.117c0.057,0.08,0.087,0.196,0.094,0.35c0.093-0.153,0.186-0.27,0.284-0.35
			c0.097-0.076,0.226-0.117,0.39-0.117c0.162,0,0.318,0.041,0.471,0.117c0.154,0.08,0.229,0.181,0.229,0.313
			c0,0.095-0.031,0.17-0.096,0.223c-0.065,0.063-0.138,0.094-0.21,0.094c-0.028,0-0.097-0.021-0.205-0.049
			c-0.109-0.036-0.203-0.054-0.287-0.054c-0.114,0-0.205,0.027-0.277,0.084c-0.071,0.06-0.128,0.145-0.167,0.258
			c-0.038,0.113-0.067,0.248-0.081,0.403C37.305,76.35,37.296,76.538,37.296,76.766z"/>
		<path fill="#99A3AA" d="M40.786,76.505h-1.508c0.001,0.171,0.038,0.318,0.104,0.451c0.067,0.126,0.162,0.225,0.275,0.29
			c0.114,0.067,0.239,0.101,0.377,0.101c0.093,0,0.176-0.01,0.252-0.033c0.077-0.021,0.149-0.054,0.222-0.098
			c0.072-0.043,0.137-0.092,0.197-0.143c0.06-0.054,0.141-0.121,0.235-0.21c0.037-0.032,0.094-0.052,0.168-0.052
			c0.08,0,0.142,0.022,0.193,0.064c0.047,0.043,0.075,0.101,0.075,0.179c0,0.067-0.028,0.146-0.083,0.234
			c-0.057,0.092-0.138,0.177-0.248,0.263c-0.11,0.084-0.25,0.149-0.416,0.206c-0.167,0.059-0.358,0.083-0.574,0.083
			c-0.496,0-0.881-0.136-1.155-0.41c-0.275-0.273-0.411-0.645-0.411-1.118c0-0.217,0.03-0.424,0.1-0.612
			c0.067-0.189,0.167-0.351,0.297-0.487c0.13-0.137,0.29-0.237,0.481-0.311c0.188-0.072,0.399-0.106,0.631-0.106
			c0.302,0,0.559,0.06,0.777,0.184c0.214,0.124,0.377,0.281,0.483,0.477c0.107,0.193,0.162,0.397,0.162,0.599
			c0,0.188-0.054,0.311-0.166,0.368C41.145,76.478,40.986,76.505,40.786,76.505z M39.278,76.082h1.399
			c-0.021-0.255-0.091-0.448-0.215-0.575c-0.122-0.129-0.287-0.191-0.486-0.191c-0.193,0-0.349,0.065-0.472,0.193
			C39.376,75.639,39.304,75.829,39.278,76.082z"/>
		<path fill="#99A3AA" d="M44.264,76.864c0,0.207-0.051,0.382-0.155,0.53c-0.103,0.147-0.256,0.258-0.461,0.333
			c-0.2,0.078-0.446,0.114-0.736,0.114c-0.278,0-0.515-0.041-0.714-0.124c-0.196-0.08-0.344-0.182-0.437-0.308
			c-0.094-0.124-0.141-0.25-0.141-0.372c0-0.078,0.03-0.149,0.09-0.21c0.062-0.061,0.137-0.092,0.229-0.092
			c0.082,0,0.144,0.021,0.187,0.06c0.043,0.038,0.085,0.095,0.125,0.162c0.078,0.136,0.171,0.233,0.283,0.298
			c0.108,0.065,0.258,0.097,0.45,0.097c0.155,0,0.28-0.031,0.379-0.098c0.097-0.065,0.146-0.14,0.146-0.229
			c0-0.134-0.049-0.223-0.153-0.289c-0.101-0.058-0.271-0.116-0.505-0.171c-0.267-0.064-0.482-0.131-0.648-0.2
			c-0.167-0.072-0.3-0.165-0.4-0.279c-0.1-0.116-0.149-0.259-0.149-0.426c0-0.147,0.046-0.292,0.138-0.426
			c0.093-0.133,0.228-0.239,0.408-0.318c0.181-0.079,0.397-0.12,0.653-0.12c0.197,0,0.377,0.02,0.535,0.06
			c0.16,0.042,0.293,0.095,0.4,0.16c0.106,0.069,0.186,0.144,0.242,0.229c0.056,0.081,0.083,0.161,0.083,0.241
			c0,0.084-0.028,0.155-0.089,0.211c-0.059,0.056-0.144,0.08-0.253,0.08c-0.078,0-0.146-0.019-0.2-0.064
			c-0.056-0.044-0.12-0.111-0.19-0.197c-0.059-0.071-0.127-0.133-0.207-0.176c-0.079-0.043-0.187-0.064-0.321-0.064
			c-0.141,0-0.257,0.03-0.349,0.089c-0.094,0.057-0.138,0.13-0.138,0.214c0,0.078,0.033,0.143,0.1,0.194
			c0.07,0.048,0.161,0.089,0.276,0.123c0.115,0.033,0.272,0.073,0.475,0.12c0.238,0.058,0.435,0.127,0.584,0.205
			c0.152,0.08,0.268,0.172,0.344,0.277C44.226,76.603,44.264,76.728,44.264,76.864z"/>
		<path fill="#99A3AA" d="M47.11,76.864c0,0.207-0.052,0.382-0.155,0.53c-0.104,0.147-0.257,0.258-0.459,0.333
			c-0.203,0.078-0.448,0.114-0.739,0.114c-0.276,0-0.513-0.041-0.71-0.124c-0.198-0.08-0.346-0.182-0.438-0.308
			c-0.097-0.124-0.142-0.25-0.142-0.372c0-0.078,0.028-0.149,0.091-0.21c0.06-0.061,0.136-0.092,0.228-0.092
			c0.083,0,0.144,0.021,0.186,0.06c0.043,0.038,0.086,0.095,0.124,0.162c0.08,0.136,0.175,0.233,0.283,0.298
			c0.112,0.065,0.262,0.097,0.452,0.097c0.154,0,0.28-0.031,0.379-0.098c0.099-0.065,0.147-0.14,0.147-0.229
			c0-0.134-0.05-0.223-0.154-0.289c-0.101-0.058-0.272-0.116-0.505-0.171c-0.266-0.064-0.484-0.131-0.65-0.2
			c-0.165-0.072-0.299-0.165-0.399-0.279c-0.099-0.116-0.149-0.259-0.149-0.426c0-0.147,0.046-0.292,0.139-0.426
			c0.092-0.133,0.229-0.239,0.408-0.318c0.18-0.079,0.397-0.12,0.652-0.12c0.199,0,0.378,0.02,0.537,0.06
			c0.158,0.042,0.291,0.095,0.398,0.16c0.106,0.069,0.188,0.144,0.243,0.229c0.055,0.081,0.083,0.161,0.083,0.241
			c0,0.084-0.028,0.155-0.088,0.211c-0.06,0.056-0.145,0.08-0.254,0.08c-0.077,0-0.146-0.019-0.2-0.064
			c-0.057-0.044-0.118-0.111-0.191-0.197c-0.059-0.071-0.128-0.133-0.207-0.176s-0.187-0.064-0.32-0.064
			c-0.142,0-0.257,0.03-0.349,0.089c-0.092,0.057-0.138,0.13-0.138,0.214c0,0.078,0.033,0.143,0.102,0.194
			c0.068,0.048,0.158,0.089,0.273,0.123c0.115,0.033,0.274,0.073,0.475,0.12c0.238,0.058,0.434,0.127,0.584,0.205
			c0.15,0.08,0.266,0.172,0.345,0.277C47.07,76.603,47.11,76.728,47.11,76.864z"/>
		<path fill="#99A3AA" d="M16.019,81.19c-0.107,0-0.2-0.03-0.274-0.098c-0.077-0.063-0.115-0.153-0.115-0.271
			c0-0.106,0.039-0.193,0.116-0.262c0.079-0.069,0.171-0.101,0.274-0.101c0.099,0,0.188,0.031,0.267,0.094
			c0.077,0.061,0.116,0.151,0.116,0.269s-0.039,0.208-0.113,0.271C16.211,81.158,16.123,81.19,16.019,81.19z M16.402,81.963v2.161
			c0,0.151-0.04,0.265-0.11,0.342c-0.075,0.075-0.169,0.113-0.282,0.113c-0.112,0-0.203-0.04-0.273-0.117
			c-0.07-0.079-0.106-0.188-0.106-0.338v-2.142c0-0.147,0.036-0.257,0.106-0.332c0.071-0.073,0.162-0.107,0.273-0.107
			c0.114,0,0.209,0.034,0.282,0.107C16.362,81.726,16.402,81.831,16.402,81.963z"/>
		<path fill="#99A3AA" d="M17.609,81.95v0.095c0.137-0.176,0.283-0.302,0.443-0.385c0.162-0.081,0.347-0.117,0.557-0.117
			c0.202,0,0.385,0.038,0.544,0.123c0.162,0.089,0.281,0.211,0.359,0.368c0.051,0.09,0.084,0.189,0.099,0.295
			c0.017,0.105,0.022,0.242,0.022,0.406v1.391c0,0.151-0.037,0.265-0.106,0.342c-0.072,0.075-0.162,0.113-0.276,0.113
			c-0.115,0-0.207-0.04-0.278-0.117c-0.071-0.079-0.108-0.188-0.108-0.338v-1.244c0-0.251-0.035-0.437-0.105-0.568
			c-0.071-0.13-0.211-0.193-0.423-0.193c-0.137,0-0.263,0.038-0.375,0.116c-0.113,0.083-0.196,0.19-0.25,0.331
			c-0.039,0.11-0.057,0.321-0.057,0.623v0.937c0,0.152-0.036,0.268-0.107,0.343c-0.072,0.077-0.167,0.113-0.282,0.113
			c-0.113,0-0.203-0.04-0.275-0.118c-0.071-0.078-0.106-0.188-0.106-0.338v-2.16c0-0.143,0.032-0.251,0.096-0.322
			c0.064-0.067,0.153-0.1,0.264-0.1c0.067,0,0.127,0.013,0.183,0.044c0.055,0.028,0.099,0.075,0.132,0.139
			C17.592,81.787,17.609,81.861,17.609,81.95z"/>
		<path fill="#99A3AA" d="M22.163,83.866h1.474c0.146,0,0.258,0.027,0.335,0.084c0.079,0.063,0.116,0.139,0.116,0.242
			c0,0.088-0.03,0.164-0.092,0.224c-0.061,0.063-0.153,0.097-0.278,0.097h-2.079c-0.14,0-0.251-0.041-0.33-0.113
			c-0.078-0.076-0.119-0.166-0.119-0.267c0-0.067,0.025-0.155,0.077-0.263c0.05-0.108,0.105-0.194,0.166-0.256
			c0.249-0.252,0.477-0.468,0.678-0.646c0.201-0.181,0.345-0.298,0.432-0.354c0.154-0.106,0.282-0.213,0.384-0.322
			c0.104-0.104,0.181-0.215,0.236-0.33c0.052-0.11,0.08-0.222,0.08-0.329c0-0.116-0.028-0.223-0.088-0.313
			c-0.055-0.094-0.134-0.165-0.231-0.214c-0.102-0.053-0.209-0.079-0.326-0.079c-0.246,0-0.44,0.103-0.581,0.313
			c-0.021,0.031-0.052,0.106-0.096,0.229s-0.096,0.215-0.148,0.281c-0.056,0.065-0.137,0.099-0.246,0.099
			c-0.095,0-0.172-0.029-0.234-0.092c-0.063-0.06-0.093-0.141-0.093-0.248c0-0.124,0.029-0.255,0.089-0.395
			c0.056-0.136,0.142-0.26,0.26-0.373c0.115-0.108,0.263-0.202,0.44-0.268c0.178-0.068,0.388-0.104,0.625-0.104
			c0.289,0,0.533,0.048,0.737,0.132c0.13,0.062,0.247,0.141,0.347,0.241c0.102,0.104,0.18,0.221,0.234,0.357
			c0.057,0.134,0.084,0.273,0.084,0.418c0,0.227-0.058,0.436-0.175,0.618c-0.115,0.186-0.233,0.33-0.354,0.436
			c-0.121,0.104-0.325,0.27-0.607,0.494c-0.283,0.225-0.478,0.399-0.582,0.525C22.254,83.736,22.208,83.795,22.163,83.866z"/>
		<path fill="#99A3AA" d="M27.182,82.542c0,0.298-0.019,0.556-0.055,0.772c-0.039,0.216-0.107,0.41-0.211,0.588
			c-0.127,0.213-0.293,0.378-0.497,0.499c-0.203,0.115-0.428,0.172-0.677,0.172c-0.286,0-0.543-0.077-0.771-0.236
			c-0.227-0.156-0.396-0.371-0.512-0.649c-0.058-0.154-0.101-0.32-0.127-0.503c-0.026-0.185-0.043-0.38-0.043-0.596
			c0-0.279,0.017-0.527,0.046-0.748c0.031-0.219,0.077-0.411,0.141-0.571c0.111-0.259,0.273-0.46,0.486-0.599
			c0.211-0.138,0.462-0.211,0.756-0.211c0.195,0,0.371,0.028,0.528,0.095c0.158,0.06,0.295,0.147,0.417,0.271
			c0.119,0.116,0.222,0.261,0.305,0.437C27.111,81.561,27.182,81.99,27.182,82.542z M26.41,82.485c0-0.333-0.022-0.604-0.063-0.821
			c-0.041-0.213-0.11-0.37-0.207-0.483c-0.1-0.108-0.234-0.16-0.409-0.16c-0.25,0-0.421,0.122-0.518,0.362
			c-0.097,0.245-0.146,0.618-0.146,1.122c0,0.346,0.021,0.627,0.062,0.846c0.041,0.222,0.111,0.388,0.208,0.497
			c0.099,0.113,0.231,0.168,0.399,0.168c0.172,0,0.31-0.059,0.408-0.176c0.095-0.115,0.166-0.282,0.206-0.501
			C26.389,83.123,26.41,82.842,26.41,82.485z"/>
		<path fill="#99A3AA" d="M30.331,82.542c0,0.298-0.018,0.556-0.057,0.772c-0.036,0.216-0.106,0.41-0.208,0.588
			c-0.13,0.213-0.294,0.378-0.498,0.499c-0.203,0.115-0.428,0.172-0.678,0.172c-0.288,0-0.543-0.077-0.771-0.236
			c-0.227-0.156-0.398-0.371-0.512-0.649c-0.06-0.154-0.102-0.32-0.13-0.503c-0.026-0.185-0.041-0.38-0.041-0.596
			c0-0.279,0.017-0.527,0.047-0.748c0.03-0.219,0.078-0.411,0.14-0.571c0.11-0.259,0.273-0.46,0.483-0.599
			c0.213-0.138,0.467-0.211,0.76-0.211c0.195,0,0.371,0.028,0.529,0.095c0.156,0.06,0.294,0.147,0.415,0.271
			c0.12,0.116,0.22,0.261,0.304,0.437C30.261,81.561,30.331,81.99,30.331,82.542z M29.558,82.485c0-0.333-0.02-0.604-0.063-0.821
			c-0.041-0.213-0.112-0.37-0.209-0.483c-0.098-0.108-0.233-0.16-0.408-0.16c-0.249,0-0.42,0.122-0.517,0.362
			c-0.098,0.245-0.146,0.618-0.146,1.122c0,0.346,0.021,0.627,0.062,0.846c0.041,0.222,0.11,0.388,0.209,0.497
			c0.097,0.113,0.229,0.168,0.398,0.168c0.172,0,0.31-0.059,0.406-0.176c0.098-0.115,0.167-0.282,0.206-0.501
			C29.537,83.123,29.558,82.842,29.558,82.485z"/>
		<path fill="#99A3AA" d="M30.703,81.513c0-0.182,0.054-0.353,0.155-0.518c0.101-0.159,0.252-0.293,0.452-0.387
			c0.198-0.096,0.432-0.146,0.697-0.146c0.224,0,0.42,0.027,0.589,0.084c0.17,0.06,0.312,0.138,0.424,0.236
			c0.116,0.099,0.196,0.212,0.251,0.336c0.056,0.124,0.083,0.262,0.083,0.399c0,0.181-0.048,0.338-0.143,0.479
			c-0.094,0.143-0.235,0.258-0.422,0.348c0.158,0.06,0.29,0.137,0.396,0.237c0.107,0.098,0.186,0.209,0.24,0.338
			c0.053,0.13,0.079,0.272,0.079,0.431c0,0.23-0.058,0.438-0.171,0.623c-0.116,0.187-0.284,0.336-0.507,0.442
			c-0.221,0.103-0.483,0.157-0.785,0.157c-0.312,0-0.58-0.055-0.803-0.157c-0.224-0.104-0.39-0.252-0.503-0.438
			c-0.113-0.185-0.168-0.393-0.168-0.625c0-0.486,0.237-0.826,0.718-1.008C30.897,82.167,30.703,81.892,30.703,81.513z
			 M32.728,83.325c0-0.141-0.031-0.267-0.09-0.371c-0.061-0.107-0.146-0.188-0.256-0.243c-0.107-0.056-0.23-0.083-0.366-0.083
			c-0.192,0-0.353,0.06-0.483,0.185c-0.13,0.122-0.194,0.296-0.194,0.519c0,0.143,0.031,0.269,0.091,0.378
			c0.061,0.107,0.145,0.193,0.251,0.253c0.106,0.058,0.223,0.091,0.354,0.091c0.13,0,0.25-0.033,0.353-0.093
			c0.108-0.06,0.19-0.145,0.251-0.255C32.697,83.594,32.728,83.472,32.728,83.325z M32.023,80.987c-0.178,0-0.319,0.053-0.429,0.16
			c-0.108,0.104-0.16,0.243-0.16,0.413c0,0.152,0.054,0.283,0.167,0.386c0.111,0.102,0.253,0.155,0.429,0.155
			c0.087,0,0.168-0.016,0.24-0.04c0.073-0.029,0.133-0.067,0.188-0.115c0.053-0.05,0.093-0.105,0.121-0.175
			c0.026-0.066,0.042-0.138,0.042-0.221c0-0.104-0.025-0.204-0.076-0.289c-0.049-0.086-0.12-0.152-0.21-0.207
			C32.243,81.013,32.14,80.987,32.023,80.987z"/>
	</g>
	<path fill="#FDBD2F" d="M120.453,37.493h-3.996v4.792h3.805v13.96h9.439V42.901h3.799v-5.408h-4.182v-5.6c0,0,0-2.401,2.279-2.401
		h2.854v-9.157h-8.045c0,0-5.953-0.553-5.953,6.331V37.493L120.453,37.493z"/>
	<path fill="#FDBD2F" d="M69.688,39.52c3.203-5.104,13.191-3.69,13.191,2.215v14.511h-9.195V44.188
		c-0.754-2.271-3.664-1.903-3.802,0.556v11.499H60.44v-24.35c0,0,0.377-2.401-1.901-2.401h-2.85v-9.157h8.046
		c0,0,5.955-0.553,5.955,6.336L69.688,39.52L69.688,39.52z"/>
	<polygon fill="#FDBD2F" points="87.313,14.802 97.072,14.802 97.072,45.399 102.65,37.493 113.545,37.493 106.637,45.852 
		113.734,56.616 102.455,56.616 97.072,46.041 97.072,56.8 87.313,56.8 	"/>
	<g>
		<line fill="none" x1="51.992" y1="20.63" x2="51.992" y2="85.698"/>
		<rect x="51.515" y="20.63" fill="#99A3AA" width="0.953" height="65.068"/>
	</g>
</g>
</svg>
