   
<svg id="fba5c3f8-545f-49cf-a2e5-4b8d34a5777d" data-name="Calque 1" xmlns="http://www.w3.org/2000/svg" viewBox="0 0 521.14 141.44"><path d="M305.41,37.21,286.87,63.54,268.26,37.21H256.49V91.57h15V68l12.35,17h6l12.36-17V91.57h15.15V60.88l-1-1a37.63,37.63,0,0,1-10.86-22.66Z" fill="#ffffff"/><polygon points="490.91 51.92 490.91 91.57 506.35 91.57 506.35 51.92 521.14 51.92 521.14 37.21 476.05 37.21 476.05 51.92 490.91 51.92" fill="#ffffff"/><polygon points="0 91.57 41.11 91.57 41.11 77 15.44 77 15.44 37.21 0 37.21 0 91.57" fill="#ffffff"/><rect x="51.29" y="37.21" width="15.44" height="54.36" fill="#ffffff"/><path d="M116.8,61.7a12,12,0,0,0,7.5-11.1c0-6.62-5.29-13.39-16.17-13.39H81.72V91.57h27.73c10.51,0,17.73-6.7,17.73-16.11,0-6.47-3.31-12.14-10.38-13.76M105.18,50a3.85,3.85,0,0,1,4.12,3.9c0,1.76-1.11,3.82-4.78,3.82H96.73V50Zm.88,28.61H96.73v-8.9h9.85c3.38,0,4.85,2.21,4.85,4.42,0,2-1.25,4.48-5.37,4.48" fill="#ffffff"/><path d="M168.16,91.57h17.43l-11.1-19.64c6.76-3.46,9.34-9.86,9.34-16.26,0-10.22-6.4-18.46-20.6-18.46H139.55V91.57h15.3v-17h4.7ZM154.85,51.11h8.24a4.77,4.77,0,0,1,5,5.08c0,2.57-1.47,5.15-5.37,5.15h-7.87Z" fill="#ffffff"/><path d="M231,91.57h15.67L227.92,37.21H213L193.65,91.57h15.66l2.73-8.9h16.4ZM225,69.5h-9.27l4.71-15Z" fill="#ffffff"/><path d="M465.8,91.57V37.21h-15V64.43L427.55,37.21h0a37.63,37.63,0,0,1-10.86,22.66l-.61.6v31.1h15V64.72l22.73,26.85Z" fill="#ffffff"/><path d="M361.9,15.45a33.66,33.66,0,0,1,4.59-5.76A33.09,33.09,0,0,0,319.7,56.48l23.4,23.39a33.06,33.06,0,0,1-8.4-32.53,16.54,16.54,0,1,1,22.64-22.65l.61-.17c.2-.78.42-1.54.69-2.29.1-.32.22-.63.34-.94a31.24,31.24,0,0,1,1.57-3.49c.23-.43.46-.86.71-1.28s.42-.72.64-1.07" fill="#ffcb05"/><path d="M366.49,56.48a33.09,33.09,0,0,1-8.39-14.25,16.53,16.53,0,0,0-3.3,26Z" fill="#ffcb05"/><path d="M359.64,33.09a16.49,16.49,0,0,0-2.29-8.4A33.11,33.11,0,0,0,334.7,47.34a16.54,16.54,0,0,0,24.94-14.25" fill="#8dc63f"/><path d="M356.8,33.09a33.38,33.38,0,0,0,.92,7.73,16.52,16.52,0,0,0,0-15.46,33.38,33.38,0,0,0-.92,7.73" fill="#00a651"/><path d="M357.72,25.35l.21-.83-.58.17c.13.22.26.44.37.66" fill="#91a93e"/><path d="M376.18,33.09a32.94,32.94,0,0,0-9.69-23.4,33.07,33.07,0,0,0-8.77,15.66A16.61,16.61,0,0,1,359.35,30s0,.07,0,.11c.05.27.09.53.12.8,0,.08,0,.16,0,.24l.06.72a2.28,2.28,0,0,1,0,.26q0,.48,0,1h0q0,.48,0,1c0,.09,0,.19,0,.29l-.06.67c0,.1,0,.2,0,.31s-.07.45-.11.67a2.17,2.17,0,0,1,0,.25c-.06.29-.12.58-.19.86a.11.11,0,0,1,0,0c-.16.62-.36,1.24-.58,1.84l-.05.12c-.1.26-.21.51-.33.77a1.17,1.17,0,0,1-.05.11c-.13.28-.26.56-.4.82a33,33,0,0,0,8.76,15.67,32.92,32.92,0,0,0,9.69-23.39" fill="#00904d"/><path d="M357.72,40.82a16.3,16.3,0,0,1-2.92,4,16.43,16.43,0,0,1,3.3-2.55c-.14-.46-.27-.93-.38-1.41" fill="#91a93e"/><path d="M354.8,44.78h0a16.54,16.54,0,0,1-20.1,2.56,33.06,33.06,0,0,0,8.4,32.53l11.7-11.69a16.54,16.54,0,0,1,0-23.4" fill="#91a93e"/><path d="M354.8,68.18,343.1,79.87l23.39,23.4,23.4-23.4-11.7-11.69a16.53,16.53,0,0,1-23.39,0" fill="#8dc63f"/><path d="M400.83,45.49c-.24.22-.5.42-.76.63.26-.21.52-.41.76-.63m-16.41-28a15.27,15.27,0,0,0-1.9.81,16.94,16.94,0,0,1,1.9-.81m1-.3-.8.25.8-.25m2.17-.46a16,16,0,0,0-2,.41,16,16,0,0,1,2-.41m1-.11-.74.08.74-.08m1.31-.06c-.34,0-.68,0-1,0,.33,0,.67,0,1,0M406.4,34.1c0-.33,0-.66,0-1,0,.34,0,.67,0,1m-.1,1c0-.24.06-.49.07-.73,0,.24,0,.49-.07.73m-.19,1.25c.06-.31.11-.63.16-1,0,.32-.1.64-.16,1m-.24,1c.08-.32.16-.64.23-1-.07.33-.15.65-.23,1m-.3,1c.08-.23.16-.48.23-.72-.07.24-.15.49-.23.72m-.84,2.06a18.15,18.15,0,0,0,.76-1.81,18.15,18.15,0,0,1-.76,1.81m-.48.9.39-.73-.39.73M403,43.13a16.51,16.51,0,0,0,1.12-1.65A15.43,15.43,0,0,1,403,43.13m-.65.79c.2-.22.39-.46.58-.7-.19.24-.38.48-.58.7m-.08.1a17.91,17.91,0,0,1-1.44,1.45A17.91,17.91,0,0,0,402.3,44M400,46.17a18,18,0,0,1-1.73,1.16A18,18,0,0,0,400,46.17M382.5,18.29a16.6,16.6,0,0,0-6.86,6.4h0a16.58,16.58,0,0,1,6.85-6.4" fill="#00aeef"/><path d="M366.49,56.48a32.91,32.91,0,0,0,8.4-14.25,16.55,16.55,0,0,1,3.3,26Z" fill="#00aeef"/><path d="M373.35,33.09a16.49,16.49,0,0,1,2.29-8.4,33.11,33.11,0,0,1,22.65,22.65,16.54,16.54,0,0,1-24.94-14.25" fill="#8dc63f"/><path d="M376.18,33.09a33.38,33.38,0,0,1-.91,7.73,16.52,16.52,0,0,1,0-15.46,33.38,33.38,0,0,1,.91,7.73" fill="#91a93e"/><path d="M375.27,25.35l-.21-.83.58.17c-.13.22-.25.44-.37.66" fill="#00a651"/><path d="M375.27,40.82a16.3,16.3,0,0,0,2.92,4,16.43,16.43,0,0,0-3.3-2.55c.14-.46.26-.93.38-1.41" fill="#00a651"/><path d="M378.19,44.78h0a16.54,16.54,0,0,0,20.1,2.56,33.06,33.06,0,0,1-8.4,32.53l-11.7-11.69a16.54,16.54,0,0,0,0-23.4" fill="#00a651"/><path d="M371.09,15.45a33.24,33.24,0,0,0-4.6-5.76,33.09,33.09,0,1,1,46.8,46.79l-23.4,23.39a33.06,33.06,0,0,0,8.4-32.53,16.54,16.54,0,1,0-22.64-22.65l-.61-.17c-.21-.78-.42-1.54-.69-2.29-.1-.32-.22-.63-.34-.94a33.17,33.17,0,0,0-1.57-3.49c-.23-.43-.46-.86-.71-1.28s-.42-.72-.64-1.07" fill="#00aeef"/><path d="M408.31,131.43a11.4,11.4,0,0,1-4.46-4.33,12.89,12.89,0,0,1,0-12.51,11.28,11.28,0,0,1,4.46-4.31,13.38,13.38,0,0,1,6.48-1.55,12.41,12.41,0,0,1,5.77,1.3,9.32,9.32,0,0,1,3.92,3.77l-3.27,2.11a7.37,7.37,0,0,0-2.78-2.56,8.07,8.07,0,0,0-3.68-.85,8.49,8.49,0,0,0-4.2,1,7.35,7.35,0,0,0-2.91,2.94,9.64,9.64,0,0,0,0,8.79,7.35,7.35,0,0,0,2.91,2.94,8.49,8.49,0,0,0,4.2,1,8,8,0,0,0,3.68-.86,7.34,7.34,0,0,0,2.78-2.55l3.27,2.06a9.42,9.42,0,0,1-3.92,3.79,12.3,12.3,0,0,1-5.77,1.32,13.17,13.17,0,0,1-6.48-1.57" fill="#ffffff"/><path d="M433.5,131.43a11.36,11.36,0,0,1-4.42-4.33,13.1,13.1,0,0,1,0-12.51,11.24,11.24,0,0,1,4.42-4.31,13.09,13.09,0,0,1,6.37-1.55,13,13,0,0,1,6.35,1.55,11.32,11.32,0,0,1,4.4,4.31,13.1,13.1,0,0,1,0,12.51,11.44,11.44,0,0,1-4.4,4.33,12.75,12.75,0,0,1-6.35,1.57,12.88,12.88,0,0,1-6.37-1.57M444,128.18a7.52,7.52,0,0,0,2.85-3,9.81,9.81,0,0,0,0-8.75,7.4,7.4,0,0,0-2.85-2.94,8.72,8.72,0,0,0-8.22,0,7.43,7.43,0,0,0-2.86,2.94,9.56,9.56,0,0,0,0,8.75,7.55,7.55,0,0,0,2.86,3,8.5,8.5,0,0,0,8.22,0" fill="#ffffff"/><path d="M462,131.43a11.29,11.29,0,0,1-4.42-4.33,13.1,13.1,0,0,1,0-12.51,11.17,11.17,0,0,1,4.42-4.31,13.82,13.82,0,0,1,12.72,0,11.23,11.23,0,0,1,4.39,4.31,13,13,0,0,1,0,12.51,11.35,11.35,0,0,1-4.39,4.33,13.67,13.67,0,0,1-12.72,0m10.47-3.25a7.32,7.32,0,0,0,2.85-3,9.72,9.72,0,0,0,0-8.75,7.21,7.21,0,0,0-2.85-2.94,8.7,8.7,0,0,0-8.21,0,7.36,7.36,0,0,0-2.86,2.94,9.56,9.56,0,0,0,0,8.75,7.48,7.48,0,0,0,2.86,3,8.48,8.48,0,0,0,8.21,0" fill="#ffffff"/><path d="M505.46,110.25a11.07,11.07,0,0,1,4.29,4.27,12.62,12.62,0,0,1,1.54,6.32,12.76,12.76,0,0,1-1.54,6.35,11,11,0,0,1-4.29,4.29,12.56,12.56,0,0,1-6.19,1.52,11.16,11.16,0,0,1-4.69-1,9.78,9.78,0,0,1-3.61-2.88v12.3h-4.31V109h4.13v3.77a9.15,9.15,0,0,1,3.63-3,11.54,11.54,0,0,1,4.85-1,12.56,12.56,0,0,1,6.19,1.52M503,128.18a7.57,7.57,0,0,0,2.87-3,9.64,9.64,0,0,0,0-8.75,7.45,7.45,0,0,0-2.87-2.94,8.15,8.15,0,0,0-4.11-1,8,8,0,0,0-4.06,1,7.72,7.72,0,0,0-2.87,2.94,8.81,8.81,0,0,0-1.05,4.35,9,9,0,0,0,1,4.38,7.31,7.31,0,0,0,2.87,3,8.44,8.44,0,0,0,8.19,0" fill="#ffffff"/></svg>